<mxfile host="app.diagrams.net" modified="2024-09-10T20:57:39.586Z" agent="Mozilla/5.0 (Windows NT 10.0; Win64; x64) AppleWebKit/537.36 (KHTML, like Gecko) Chrome/128.0.0.0 Safari/537.36" etag="ODKO2cBRtKZlj7rCsXb6" version="24.6.3" type="github" pages="7">
  <diagram name="系统功能模块图" id="47HzZC4zaf_FDOMyMsvs">
    <mxGraphModel dx="2048" dy="1787" grid="1" gridSize="10" guides="1" tooltips="1" connect="1" arrows="1" fold="1" page="1" pageScale="1" pageWidth="827" pageHeight="1169" math="0" shadow="0">
      <root>
        <mxCell id="0" />
        <mxCell id="1" parent="0" />
        <mxCell id="k72ShCJNPWPTYYfwveIk-1" style="edgeStyle=orthogonalEdgeStyle;rounded=0;orthogonalLoop=1;jettySize=auto;html=1;exitX=0.5;exitY=1;exitDx=0;exitDy=0;" edge="1" parent="1" source="k72ShCJNPWPTYYfwveIk-3" target="k72ShCJNPWPTYYfwveIk-9">
          <mxGeometry relative="1" as="geometry" />
        </mxCell>
        <mxCell id="k72ShCJNPWPTYYfwveIk-2" style="edgeStyle=orthogonalEdgeStyle;rounded=0;orthogonalLoop=1;jettySize=auto;html=1;exitX=0.5;exitY=1;exitDx=0;exitDy=0;entryX=0.5;entryY=0;entryDx=0;entryDy=0;" edge="1" parent="1" source="k72ShCJNPWPTYYfwveIk-3" target="k72ShCJNPWPTYYfwveIk-12">
          <mxGeometry relative="1" as="geometry" />
        </mxCell>
        <mxCell id="k72ShCJNPWPTYYfwveIk-3" value="AI记账系统" style="rounded=0;whiteSpace=wrap;html=1;" vertex="1" parent="1">
          <mxGeometry x="28" y="-51" width="120" height="60" as="geometry" />
        </mxCell>
        <mxCell id="k72ShCJNPWPTYYfwveIk-4" style="edgeStyle=orthogonalEdgeStyle;rounded=0;orthogonalLoop=1;jettySize=auto;html=1;exitX=0.5;exitY=1;exitDx=0;exitDy=0;entryX=0.5;entryY=0;entryDx=0;entryDy=0;" edge="1" parent="1" source="k72ShCJNPWPTYYfwveIk-9" target="k72ShCJNPWPTYYfwveIk-13">
          <mxGeometry relative="1" as="geometry" />
        </mxCell>
        <mxCell id="k72ShCJNPWPTYYfwveIk-5" style="edgeStyle=orthogonalEdgeStyle;rounded=0;orthogonalLoop=1;jettySize=auto;html=1;exitX=0.5;exitY=1;exitDx=0;exitDy=0;" edge="1" parent="1" source="k72ShCJNPWPTYYfwveIk-9" target="k72ShCJNPWPTYYfwveIk-14">
          <mxGeometry relative="1" as="geometry" />
        </mxCell>
        <mxCell id="k72ShCJNPWPTYYfwveIk-6" style="edgeStyle=orthogonalEdgeStyle;rounded=0;orthogonalLoop=1;jettySize=auto;html=1;exitX=0.5;exitY=1;exitDx=0;exitDy=0;entryX=0.5;entryY=0;entryDx=0;entryDy=0;" edge="1" parent="1" source="k72ShCJNPWPTYYfwveIk-9" target="k72ShCJNPWPTYYfwveIk-15">
          <mxGeometry relative="1" as="geometry" />
        </mxCell>
        <mxCell id="k72ShCJNPWPTYYfwveIk-7" style="edgeStyle=orthogonalEdgeStyle;rounded=0;orthogonalLoop=1;jettySize=auto;html=1;exitX=0.5;exitY=1;exitDx=0;exitDy=0;entryX=0.5;entryY=0;entryDx=0;entryDy=0;" edge="1" parent="1" source="k72ShCJNPWPTYYfwveIk-9" target="k72ShCJNPWPTYYfwveIk-16">
          <mxGeometry relative="1" as="geometry" />
        </mxCell>
        <mxCell id="k72ShCJNPWPTYYfwveIk-8" style="edgeStyle=orthogonalEdgeStyle;rounded=0;orthogonalLoop=1;jettySize=auto;html=1;exitX=0.5;exitY=1;exitDx=0;exitDy=0;entryX=0.5;entryY=0;entryDx=0;entryDy=0;" edge="1" parent="1" source="k72ShCJNPWPTYYfwveIk-9" target="k72ShCJNPWPTYYfwveIk-17">
          <mxGeometry relative="1" as="geometry" />
        </mxCell>
        <mxCell id="2A6l9kM1xLO7CppK2SdV-2" style="edgeStyle=orthogonalEdgeStyle;rounded=0;orthogonalLoop=1;jettySize=auto;html=1;exitX=0.5;exitY=1;exitDx=0;exitDy=0;" edge="1" parent="1" source="k72ShCJNPWPTYYfwveIk-9" target="2A6l9kM1xLO7CppK2SdV-1">
          <mxGeometry relative="1" as="geometry" />
        </mxCell>
        <mxCell id="k72ShCJNPWPTYYfwveIk-9" value="用户端" style="rounded=0;whiteSpace=wrap;html=1;" vertex="1" parent="1">
          <mxGeometry x="-228" y="94" width="120" height="60" as="geometry" />
        </mxCell>
        <mxCell id="k72ShCJNPWPTYYfwveIk-10" style="edgeStyle=orthogonalEdgeStyle;rounded=0;orthogonalLoop=1;jettySize=auto;html=1;exitX=0.5;exitY=1;exitDx=0;exitDy=0;entryX=0.5;entryY=0;entryDx=0;entryDy=0;" edge="1" parent="1" source="k72ShCJNPWPTYYfwveIk-12" target="k72ShCJNPWPTYYfwveIk-19">
          <mxGeometry relative="1" as="geometry" />
        </mxCell>
        <mxCell id="k72ShCJNPWPTYYfwveIk-11" style="edgeStyle=orthogonalEdgeStyle;rounded=0;orthogonalLoop=1;jettySize=auto;html=1;exitX=0.5;exitY=1;exitDx=0;exitDy=0;entryX=0.5;entryY=0;entryDx=0;entryDy=0;" edge="1" parent="1" source="k72ShCJNPWPTYYfwveIk-12" target="k72ShCJNPWPTYYfwveIk-18">
          <mxGeometry relative="1" as="geometry" />
        </mxCell>
        <mxCell id="k72ShCJNPWPTYYfwveIk-12" value="管理端" style="rounded=0;whiteSpace=wrap;html=1;" vertex="1" parent="1">
          <mxGeometry x="290" y="94" width="120" height="60" as="geometry" />
        </mxCell>
        <mxCell id="k72ShCJNPWPTYYfwveIk-13" value="账单录入" style="rounded=0;whiteSpace=wrap;html=1;" vertex="1" parent="1">
          <mxGeometry x="-630" y="212" width="95" height="181" as="geometry" />
        </mxCell>
        <mxCell id="k72ShCJNPWPTYYfwveIk-14" value="&lt;div class=&quot;lake-content&quot;&gt;图片上传&lt;/div&gt;" style="rounded=0;whiteSpace=wrap;html=1;" vertex="1" parent="1">
          <mxGeometry x="-338" y="212" width="95" height="181" as="geometry" />
        </mxCell>
        <mxCell id="k72ShCJNPWPTYYfwveIk-15" value="&lt;div class=&quot;lake-content&quot;&gt;&lt;div class=&quot;lake-content&quot;&gt;支出分类管理&lt;/div&gt;&lt;/div&gt;" style="rounded=0;whiteSpace=wrap;html=1;" vertex="1" parent="1">
          <mxGeometry x="-210" y="212" width="95" height="181" as="geometry" />
        </mxCell>
        <mxCell id="k72ShCJNPWPTYYfwveIk-16" value="&lt;div class=&quot;lake-content&quot;&gt;&lt;div class=&quot;lake-content&quot;&gt;&lt;div class=&quot;lake-content&quot;&gt;付款对象管理&lt;/div&gt;&lt;/div&gt;&lt;/div&gt;" style="rounded=0;whiteSpace=wrap;html=1;" vertex="1" parent="1">
          <mxGeometry x="-87" y="212" width="95" height="181" as="geometry" />
        </mxCell>
        <mxCell id="k72ShCJNPWPTYYfwveIk-17" value="&lt;div class=&quot;lake-content&quot;&gt;&lt;div class=&quot;lake-content&quot;&gt;&lt;div class=&quot;lake-content&quot;&gt;&lt;div class=&quot;lake-content&quot;&gt;支出事项管理&lt;/div&gt;&lt;/div&gt;&lt;/div&gt;&lt;/div&gt;" style="rounded=0;whiteSpace=wrap;html=1;" vertex="1" parent="1">
          <mxGeometry x="60" y="212" width="95" height="181" as="geometry" />
        </mxCell>
        <mxCell id="k72ShCJNPWPTYYfwveIk-18" value="用户管理模块" style="rounded=0;whiteSpace=wrap;html=1;" vertex="1" parent="1">
          <mxGeometry x="371" y="207" width="95" height="181" as="geometry" />
        </mxCell>
        <mxCell id="k72ShCJNPWPTYYfwveIk-19" value="&lt;div class=&quot;lake-content&quot;&gt;&lt;div class=&quot;lake-content&quot;&gt;&lt;div class=&quot;lake-content&quot;&gt;&lt;div class=&quot;lake-content&quot;&gt;&lt;div class=&quot;lake-content&quot;&gt;gpt账号管理模块&lt;/div&gt;&lt;/div&gt;&lt;/div&gt;&lt;/div&gt;&lt;/div&gt;" style="rounded=0;whiteSpace=wrap;html=1;" vertex="1" parent="1">
          <mxGeometry x="228" y="207" width="95" height="181" as="geometry" />
        </mxCell>
        <mxCell id="2A6l9kM1xLO7CppK2SdV-1" value="数据分析模块" style="rounded=0;whiteSpace=wrap;html=1;" vertex="1" parent="1">
          <mxGeometry x="-490" y="212" width="95" height="181" as="geometry" />
        </mxCell>
      </root>
    </mxGraphModel>
  </diagram>
  <diagram id="rXpqxrs2fbxfMv4wxJCb" name="数据库ER">
    <mxGraphModel dx="1221" dy="618" grid="1" gridSize="10" guides="1" tooltips="1" connect="1" arrows="1" fold="1" page="1" pageScale="1" pageWidth="827" pageHeight="1169" math="0" shadow="0">
      <root>
        <mxCell id="0" />
        <mxCell id="1" parent="0" />
        <mxCell id="-MIdFRupgUV09doepX82-2" value="USER" style="shape=table;startSize=25;container=1;collapsible=0;childLayout=tableLayout;fixedRows=1;rowLines=1;fontStyle=1;align=center;resizeLast=1;" vertex="1" parent="1">
          <mxGeometry x="20" y="20" width="149" height="109" as="geometry" />
        </mxCell>
        <mxCell id="-MIdFRupgUV09doepX82-3" style="shape=tableRow;horizontal=0;startSize=0;swimlaneHead=0;swimlaneBody=0;fillColor=none;collapsible=0;dropTarget=0;points=[[0,0.5],[1,0.5]];portConstraint=eastwest;top=0;left=0;right=0;bottom=0;" vertex="1" parent="-MIdFRupgUV09doepX82-2">
          <mxGeometry y="25" width="149" height="21" as="geometry" />
        </mxCell>
        <mxCell id="-MIdFRupgUV09doepX82-4" value="INTEGER" style="shape=partialRectangle;connectable=0;fillColor=none;top=0;left=0;bottom=0;right=0;align=left;spacingLeft=2;overflow=hidden;fontSize=11;" vertex="1" parent="-MIdFRupgUV09doepX82-3">
          <mxGeometry width="54" height="21" as="geometry">
            <mxRectangle width="54" height="21" as="alternateBounds" />
          </mxGeometry>
        </mxCell>
        <mxCell id="-MIdFRupgUV09doepX82-5" value="id" style="shape=partialRectangle;connectable=0;fillColor=none;top=0;left=0;bottom=0;right=0;align=left;spacingLeft=2;overflow=hidden;fontSize=11;" vertex="1" parent="-MIdFRupgUV09doepX82-3">
          <mxGeometry x="54" width="95" height="21" as="geometry">
            <mxRectangle width="95" height="21" as="alternateBounds" />
          </mxGeometry>
        </mxCell>
        <mxCell id="-MIdFRupgUV09doepX82-6" style="shape=tableRow;horizontal=0;startSize=0;swimlaneHead=0;swimlaneBody=0;fillColor=none;collapsible=0;dropTarget=0;points=[[0,0.5],[1,0.5]];portConstraint=eastwest;top=0;left=0;right=0;bottom=0;" vertex="1" parent="-MIdFRupgUV09doepX82-2">
          <mxGeometry y="46" width="149" height="21" as="geometry" />
        </mxCell>
        <mxCell id="-MIdFRupgUV09doepX82-7" value="TEXT" style="shape=partialRectangle;connectable=0;fillColor=none;top=0;left=0;bottom=0;right=0;align=left;spacingLeft=2;overflow=hidden;fontSize=11;" vertex="1" parent="-MIdFRupgUV09doepX82-6">
          <mxGeometry width="54" height="21" as="geometry">
            <mxRectangle width="54" height="21" as="alternateBounds" />
          </mxGeometry>
        </mxCell>
        <mxCell id="-MIdFRupgUV09doepX82-8" value="name" style="shape=partialRectangle;connectable=0;fillColor=none;top=0;left=0;bottom=0;right=0;align=left;spacingLeft=2;overflow=hidden;fontSize=11;" vertex="1" parent="-MIdFRupgUV09doepX82-6">
          <mxGeometry x="54" width="95" height="21" as="geometry">
            <mxRectangle width="95" height="21" as="alternateBounds" />
          </mxGeometry>
        </mxCell>
        <mxCell id="-MIdFRupgUV09doepX82-9" style="shape=tableRow;horizontal=0;startSize=0;swimlaneHead=0;swimlaneBody=0;fillColor=none;collapsible=0;dropTarget=0;points=[[0,0.5],[1,0.5]];portConstraint=eastwest;top=0;left=0;right=0;bottom=0;" vertex="1" parent="-MIdFRupgUV09doepX82-2">
          <mxGeometry y="67" width="149" height="21" as="geometry" />
        </mxCell>
        <mxCell id="-MIdFRupgUV09doepX82-10" value="TEXT" style="shape=partialRectangle;connectable=0;fillColor=none;top=0;left=0;bottom=0;right=0;align=left;spacingLeft=2;overflow=hidden;fontSize=11;" vertex="1" parent="-MIdFRupgUV09doepX82-9">
          <mxGeometry width="54" height="21" as="geometry">
            <mxRectangle width="54" height="21" as="alternateBounds" />
          </mxGeometry>
        </mxCell>
        <mxCell id="-MIdFRupgUV09doepX82-11" value="password" style="shape=partialRectangle;connectable=0;fillColor=none;top=0;left=0;bottom=0;right=0;align=left;spacingLeft=2;overflow=hidden;fontSize=11;" vertex="1" parent="-MIdFRupgUV09doepX82-9">
          <mxGeometry x="54" width="95" height="21" as="geometry">
            <mxRectangle width="95" height="21" as="alternateBounds" />
          </mxGeometry>
        </mxCell>
        <mxCell id="-MIdFRupgUV09doepX82-12" style="shape=tableRow;horizontal=0;startSize=0;swimlaneHead=0;swimlaneBody=0;fillColor=none;collapsible=0;dropTarget=0;points=[[0,0.5],[1,0.5]];portConstraint=eastwest;top=0;left=0;right=0;bottom=0;" vertex="1" parent="-MIdFRupgUV09doepX82-2">
          <mxGeometry y="88" width="149" height="21" as="geometry" />
        </mxCell>
        <mxCell id="-MIdFRupgUV09doepX82-13" value="TIMESTAMP" style="shape=partialRectangle;connectable=0;fillColor=none;top=0;left=0;bottom=0;right=0;align=left;spacingLeft=2;overflow=hidden;fontSize=11;" vertex="1" parent="-MIdFRupgUV09doepX82-12">
          <mxGeometry width="54" height="21" as="geometry">
            <mxRectangle width="54" height="21" as="alternateBounds" />
          </mxGeometry>
        </mxCell>
        <mxCell id="-MIdFRupgUV09doepX82-14" value="create_time" style="shape=partialRectangle;connectable=0;fillColor=none;top=0;left=0;bottom=0;right=0;align=left;spacingLeft=2;overflow=hidden;fontSize=11;" vertex="1" parent="-MIdFRupgUV09doepX82-12">
          <mxGeometry x="54" width="95" height="21" as="geometry">
            <mxRectangle width="95" height="21" as="alternateBounds" />
          </mxGeometry>
        </mxCell>
        <mxCell id="-MIdFRupgUV09doepX82-15" value="EXPENSES" style="shape=table;startSize=25;container=1;collapsible=0;childLayout=tableLayout;fixedRows=1;rowLines=1;fontStyle=1;align=center;resizeLast=1;" vertex="1" parent="1">
          <mxGeometry x="20" y="229" width="149" height="237" as="geometry" />
        </mxCell>
        <mxCell id="-MIdFRupgUV09doepX82-16" style="shape=tableRow;horizontal=0;startSize=0;swimlaneHead=0;swimlaneBody=0;fillColor=none;collapsible=0;dropTarget=0;points=[[0,0.5],[1,0.5]];portConstraint=eastwest;top=0;left=0;right=0;bottom=0;" vertex="1" parent="-MIdFRupgUV09doepX82-15">
          <mxGeometry y="25" width="149" height="21" as="geometry" />
        </mxCell>
        <mxCell id="-MIdFRupgUV09doepX82-17" value="INTEGER" style="shape=partialRectangle;connectable=0;fillColor=none;top=0;left=0;bottom=0;right=0;align=left;spacingLeft=2;overflow=hidden;fontSize=11;" vertex="1" parent="-MIdFRupgUV09doepX82-16">
          <mxGeometry width="54" height="21" as="geometry">
            <mxRectangle width="54" height="21" as="alternateBounds" />
          </mxGeometry>
        </mxCell>
        <mxCell id="-MIdFRupgUV09doepX82-18" value="id" style="shape=partialRectangle;connectable=0;fillColor=none;top=0;left=0;bottom=0;right=0;align=left;spacingLeft=2;overflow=hidden;fontSize=11;" vertex="1" parent="-MIdFRupgUV09doepX82-16">
          <mxGeometry x="54" width="95" height="21" as="geometry">
            <mxRectangle width="95" height="21" as="alternateBounds" />
          </mxGeometry>
        </mxCell>
        <mxCell id="-MIdFRupgUV09doepX82-19" style="shape=tableRow;horizontal=0;startSize=0;swimlaneHead=0;swimlaneBody=0;fillColor=none;collapsible=0;dropTarget=0;points=[[0,0.5],[1,0.5]];portConstraint=eastwest;top=0;left=0;right=0;bottom=0;" vertex="1" parent="-MIdFRupgUV09doepX82-15">
          <mxGeometry y="46" width="149" height="21" as="geometry" />
        </mxCell>
        <mxCell id="-MIdFRupgUV09doepX82-20" value="INTEGER" style="shape=partialRectangle;connectable=0;fillColor=none;top=0;left=0;bottom=0;right=0;align=left;spacingLeft=2;overflow=hidden;fontSize=11;" vertex="1" parent="-MIdFRupgUV09doepX82-19">
          <mxGeometry width="54" height="21" as="geometry">
            <mxRectangle width="54" height="21" as="alternateBounds" />
          </mxGeometry>
        </mxCell>
        <mxCell id="-MIdFRupgUV09doepX82-21" value="user_id" style="shape=partialRectangle;connectable=0;fillColor=none;top=0;left=0;bottom=0;right=0;align=left;spacingLeft=2;overflow=hidden;fontSize=11;" vertex="1" parent="-MIdFRupgUV09doepX82-19">
          <mxGeometry x="54" width="95" height="21" as="geometry">
            <mxRectangle width="95" height="21" as="alternateBounds" />
          </mxGeometry>
        </mxCell>
        <mxCell id="-MIdFRupgUV09doepX82-22" style="shape=tableRow;horizontal=0;startSize=0;swimlaneHead=0;swimlaneBody=0;fillColor=none;collapsible=0;dropTarget=0;points=[[0,0.5],[1,0.5]];portConstraint=eastwest;top=0;left=0;right=0;bottom=0;" vertex="1" parent="-MIdFRupgUV09doepX82-15">
          <mxGeometry y="67" width="149" height="21" as="geometry" />
        </mxCell>
        <mxCell id="-MIdFRupgUV09doepX82-23" value="TEXT" style="shape=partialRectangle;connectable=0;fillColor=none;top=0;left=0;bottom=0;right=0;align=left;spacingLeft=2;overflow=hidden;fontSize=11;" vertex="1" parent="-MIdFRupgUV09doepX82-22">
          <mxGeometry width="54" height="21" as="geometry">
            <mxRectangle width="54" height="21" as="alternateBounds" />
          </mxGeometry>
        </mxCell>
        <mxCell id="-MIdFRupgUV09doepX82-24" value="title" style="shape=partialRectangle;connectable=0;fillColor=none;top=0;left=0;bottom=0;right=0;align=left;spacingLeft=2;overflow=hidden;fontSize=11;" vertex="1" parent="-MIdFRupgUV09doepX82-22">
          <mxGeometry x="54" width="95" height="21" as="geometry">
            <mxRectangle width="95" height="21" as="alternateBounds" />
          </mxGeometry>
        </mxCell>
        <mxCell id="-MIdFRupgUV09doepX82-25" style="shape=tableRow;horizontal=0;startSize=0;swimlaneHead=0;swimlaneBody=0;fillColor=none;collapsible=0;dropTarget=0;points=[[0,0.5],[1,0.5]];portConstraint=eastwest;top=0;left=0;right=0;bottom=0;" vertex="1" parent="-MIdFRupgUV09doepX82-15">
          <mxGeometry y="88" width="149" height="21" as="geometry" />
        </mxCell>
        <mxCell id="-MIdFRupgUV09doepX82-26" value="TEXT" style="shape=partialRectangle;connectable=0;fillColor=none;top=0;left=0;bottom=0;right=0;align=left;spacingLeft=2;overflow=hidden;fontSize=11;" vertex="1" parent="-MIdFRupgUV09doepX82-25">
          <mxGeometry width="54" height="21" as="geometry">
            <mxRectangle width="54" height="21" as="alternateBounds" />
          </mxGeometry>
        </mxCell>
        <mxCell id="-MIdFRupgUV09doepX82-27" value="type" style="shape=partialRectangle;connectable=0;fillColor=none;top=0;left=0;bottom=0;right=0;align=left;spacingLeft=2;overflow=hidden;fontSize=11;" vertex="1" parent="-MIdFRupgUV09doepX82-25">
          <mxGeometry x="54" width="95" height="21" as="geometry">
            <mxRectangle width="95" height="21" as="alternateBounds" />
          </mxGeometry>
        </mxCell>
        <mxCell id="-MIdFRupgUV09doepX82-28" style="shape=tableRow;horizontal=0;startSize=0;swimlaneHead=0;swimlaneBody=0;fillColor=none;collapsible=0;dropTarget=0;points=[[0,0.5],[1,0.5]];portConstraint=eastwest;top=0;left=0;right=0;bottom=0;" vertex="1" parent="-MIdFRupgUV09doepX82-15">
          <mxGeometry y="109" width="149" height="21" as="geometry" />
        </mxCell>
        <mxCell id="-MIdFRupgUV09doepX82-29" value="TEXT" style="shape=partialRectangle;connectable=0;fillColor=none;top=0;left=0;bottom=0;right=0;align=left;spacingLeft=2;overflow=hidden;fontSize=11;" vertex="1" parent="-MIdFRupgUV09doepX82-28">
          <mxGeometry width="54" height="21" as="geometry">
            <mxRectangle width="54" height="21" as="alternateBounds" />
          </mxGeometry>
        </mxCell>
        <mxCell id="-MIdFRupgUV09doepX82-30" value="pay_to" style="shape=partialRectangle;connectable=0;fillColor=none;top=0;left=0;bottom=0;right=0;align=left;spacingLeft=2;overflow=hidden;fontSize=11;" vertex="1" parent="-MIdFRupgUV09doepX82-28">
          <mxGeometry x="54" width="95" height="21" as="geometry">
            <mxRectangle width="95" height="21" as="alternateBounds" />
          </mxGeometry>
        </mxCell>
        <mxCell id="-MIdFRupgUV09doepX82-31" style="shape=tableRow;horizontal=0;startSize=0;swimlaneHead=0;swimlaneBody=0;fillColor=none;collapsible=0;dropTarget=0;points=[[0,0.5],[1,0.5]];portConstraint=eastwest;top=0;left=0;right=0;bottom=0;" vertex="1" parent="-MIdFRupgUV09doepX82-15">
          <mxGeometry y="130" width="149" height="21" as="geometry" />
        </mxCell>
        <mxCell id="-MIdFRupgUV09doepX82-32" value="REAL" style="shape=partialRectangle;connectable=0;fillColor=none;top=0;left=0;bottom=0;right=0;align=left;spacingLeft=2;overflow=hidden;fontSize=11;" vertex="1" parent="-MIdFRupgUV09doepX82-31">
          <mxGeometry width="54" height="21" as="geometry">
            <mxRectangle width="54" height="21" as="alternateBounds" />
          </mxGeometry>
        </mxCell>
        <mxCell id="-MIdFRupgUV09doepX82-33" value="money" style="shape=partialRectangle;connectable=0;fillColor=none;top=0;left=0;bottom=0;right=0;align=left;spacingLeft=2;overflow=hidden;fontSize=11;" vertex="1" parent="-MIdFRupgUV09doepX82-31">
          <mxGeometry x="54" width="95" height="21" as="geometry">
            <mxRectangle width="95" height="21" as="alternateBounds" />
          </mxGeometry>
        </mxCell>
        <mxCell id="-MIdFRupgUV09doepX82-34" style="shape=tableRow;horizontal=0;startSize=0;swimlaneHead=0;swimlaneBody=0;fillColor=none;collapsible=0;dropTarget=0;points=[[0,0.5],[1,0.5]];portConstraint=eastwest;top=0;left=0;right=0;bottom=0;" vertex="1" parent="-MIdFRupgUV09doepX82-15">
          <mxGeometry y="151" width="149" height="21" as="geometry" />
        </mxCell>
        <mxCell id="-MIdFRupgUV09doepX82-35" value="TEXT" style="shape=partialRectangle;connectable=0;fillColor=none;top=0;left=0;bottom=0;right=0;align=left;spacingLeft=2;overflow=hidden;fontSize=11;" vertex="1" parent="-MIdFRupgUV09doepX82-34">
          <mxGeometry width="54" height="21" as="geometry">
            <mxRectangle width="54" height="21" as="alternateBounds" />
          </mxGeometry>
        </mxCell>
        <mxCell id="-MIdFRupgUV09doepX82-36" value="remark" style="shape=partialRectangle;connectable=0;fillColor=none;top=0;left=0;bottom=0;right=0;align=left;spacingLeft=2;overflow=hidden;fontSize=11;" vertex="1" parent="-MIdFRupgUV09doepX82-34">
          <mxGeometry x="54" width="95" height="21" as="geometry">
            <mxRectangle width="95" height="21" as="alternateBounds" />
          </mxGeometry>
        </mxCell>
        <mxCell id="-MIdFRupgUV09doepX82-37" style="shape=tableRow;horizontal=0;startSize=0;swimlaneHead=0;swimlaneBody=0;fillColor=none;collapsible=0;dropTarget=0;points=[[0,0.5],[1,0.5]];portConstraint=eastwest;top=0;left=0;right=0;bottom=0;" vertex="1" parent="-MIdFRupgUV09doepX82-15">
          <mxGeometry y="172" width="149" height="21" as="geometry" />
        </mxCell>
        <mxCell id="-MIdFRupgUV09doepX82-38" value="TEXT" style="shape=partialRectangle;connectable=0;fillColor=none;top=0;left=0;bottom=0;right=0;align=left;spacingLeft=2;overflow=hidden;fontSize=11;" vertex="1" parent="-MIdFRupgUV09doepX82-37">
          <mxGeometry width="54" height="21" as="geometry">
            <mxRectangle width="54" height="21" as="alternateBounds" />
          </mxGeometry>
        </mxCell>
        <mxCell id="-MIdFRupgUV09doepX82-39" value="images" style="shape=partialRectangle;connectable=0;fillColor=none;top=0;left=0;bottom=0;right=0;align=left;spacingLeft=2;overflow=hidden;fontSize=11;" vertex="1" parent="-MIdFRupgUV09doepX82-37">
          <mxGeometry x="54" width="95" height="21" as="geometry">
            <mxRectangle width="95" height="21" as="alternateBounds" />
          </mxGeometry>
        </mxCell>
        <mxCell id="-MIdFRupgUV09doepX82-40" style="shape=tableRow;horizontal=0;startSize=0;swimlaneHead=0;swimlaneBody=0;fillColor=none;collapsible=0;dropTarget=0;points=[[0,0.5],[1,0.5]];portConstraint=eastwest;top=0;left=0;right=0;bottom=0;" vertex="1" parent="-MIdFRupgUV09doepX82-15">
          <mxGeometry y="193" width="149" height="21" as="geometry" />
        </mxCell>
        <mxCell id="-MIdFRupgUV09doepX82-41" value="TEXT" style="shape=partialRectangle;connectable=0;fillColor=none;top=0;left=0;bottom=0;right=0;align=left;spacingLeft=2;overflow=hidden;fontSize=11;" vertex="1" parent="-MIdFRupgUV09doepX82-40">
          <mxGeometry width="54" height="21" as="geometry">
            <mxRectangle width="54" height="21" as="alternateBounds" />
          </mxGeometry>
        </mxCell>
        <mxCell id="-MIdFRupgUV09doepX82-42" value="date" style="shape=partialRectangle;connectable=0;fillColor=none;top=0;left=0;bottom=0;right=0;align=left;spacingLeft=2;overflow=hidden;fontSize=11;" vertex="1" parent="-MIdFRupgUV09doepX82-40">
          <mxGeometry x="54" width="95" height="21" as="geometry">
            <mxRectangle width="95" height="21" as="alternateBounds" />
          </mxGeometry>
        </mxCell>
        <mxCell id="-MIdFRupgUV09doepX82-43" style="shape=tableRow;horizontal=0;startSize=0;swimlaneHead=0;swimlaneBody=0;fillColor=none;collapsible=0;dropTarget=0;points=[[0,0.5],[1,0.5]];portConstraint=eastwest;top=0;left=0;right=0;bottom=0;" vertex="1" parent="-MIdFRupgUV09doepX82-15">
          <mxGeometry y="214" width="149" height="21" as="geometry" />
        </mxCell>
        <mxCell id="-MIdFRupgUV09doepX82-44" value="TIMESTAMP" style="shape=partialRectangle;connectable=0;fillColor=none;top=0;left=0;bottom=0;right=0;align=left;spacingLeft=2;overflow=hidden;fontSize=11;" vertex="1" parent="-MIdFRupgUV09doepX82-43">
          <mxGeometry width="54" height="21" as="geometry">
            <mxRectangle width="54" height="21" as="alternateBounds" />
          </mxGeometry>
        </mxCell>
        <mxCell id="-MIdFRupgUV09doepX82-45" value="create_time" style="shape=partialRectangle;connectable=0;fillColor=none;top=0;left=0;bottom=0;right=0;align=left;spacingLeft=2;overflow=hidden;fontSize=11;" vertex="1" parent="-MIdFRupgUV09doepX82-43">
          <mxGeometry x="54" width="95" height="21" as="geometry">
            <mxRectangle width="95" height="21" as="alternateBounds" />
          </mxGeometry>
        </mxCell>
        <mxCell id="-MIdFRupgUV09doepX82-46" value="has" style="curved=1;startArrow=ERmandOne;startSize=10;;endArrow=ERmany;endSize=10;;exitX=0.500508404418126;exitY=1.003058127307017;entryX=0.500508404418126;entryY=0.0014064804914128428;rounded=0;" edge="1" parent="1" source="-MIdFRupgUV09doepX82-2" target="-MIdFRupgUV09doepX82-15">
          <mxGeometry relative="1" as="geometry">
            <Array as="points" />
          </mxGeometry>
        </mxCell>
      </root>
    </mxGraphModel>
  </diagram>
  <diagram id="ItvCsxvdkxpMp3RBU3dZ" name="架构设计图">
    <mxGraphModel dx="1221" dy="618" grid="1" gridSize="10" guides="1" tooltips="1" connect="1" arrows="1" fold="1" page="1" pageScale="1" pageWidth="827" pageHeight="1169" math="0" shadow="0">
      <root>
        <mxCell id="0" />
        <mxCell id="1" parent="0" />
        <mxCell id="QSkCT-27QQO0lxmMkj0a-1" value="数据库层与外部服务" style="whiteSpace=wrap;strokeWidth=2;verticalAlign=top;" vertex="1" parent="1">
          <mxGeometry x="55" y="539" width="685" height="71" as="geometry" />
        </mxCell>
        <mxCell id="QSkCT-27QQO0lxmMkj0a-2" value="MySQL 数据库" style="whiteSpace=wrap;strokeWidth=2;" vertex="1" parent="1">
          <mxGeometry x="170" y="563" width="114" height="34" as="geometry" />
        </mxCell>
        <mxCell id="QSkCT-27QQO0lxmMkj0a-3" value="GPT 模型" style="whiteSpace=wrap;strokeWidth=2;" vertex="1" parent="1">
          <mxGeometry x="483" y="563" width="81" height="34" as="geometry" />
        </mxCell>
        <mxCell id="QSkCT-27QQO0lxmMkj0a-4" value="后端服务层" style="whiteSpace=wrap;strokeWidth=2;verticalAlign=top;" vertex="1" parent="1">
          <mxGeometry x="55" y="230" width="684.5" height="250" as="geometry" />
        </mxCell>
        <mxCell id="QSkCT-27QQO0lxmMkj0a-5" value="Controllers (控制器层)" style="whiteSpace=wrap;strokeWidth=2;" vertex="1" parent="1">
          <mxGeometry x="262" y="262" width="174" height="34" as="geometry" />
        </mxCell>
        <mxCell id="QSkCT-27QQO0lxmMkj0a-6" value="Services (服务层)" style="whiteSpace=wrap;strokeWidth=2;" vertex="1" parent="1">
          <mxGeometry x="280" y="346" width="138" height="34" as="geometry" />
        </mxCell>
        <mxCell id="QSkCT-27QQO0lxmMkj0a-7" value="Data Access Layer (数据访问层 - MyBatis-Plus)" style="whiteSpace=wrap;strokeWidth=2;" vertex="1" parent="1">
          <mxGeometry x="62.5" y="424" width="329" height="40" as="geometry" />
        </mxCell>
        <mxCell id="QSkCT-27QQO0lxmMkj0a-8" value="AI 交互模块 (GPT 解析)" style="whiteSpace=wrap;strokeWidth=2;" vertex="1" parent="1">
          <mxGeometry x="449" y="430" width="149" height="34" as="geometry" />
        </mxCell>
        <mxCell id="QSkCT-27QQO0lxmMkj0a-9" value="用户界面层" style="whiteSpace=wrap;strokeWidth=2;verticalAlign=top;" vertex="1" parent="1">
          <mxGeometry x="55" y="20" width="682" height="160" as="geometry" />
        </mxCell>
        <mxCell id="QSkCT-27QQO0lxmMkj0a-10" value="首页汇总页" style="whiteSpace=wrap;strokeWidth=2;" vertex="1" parent="1">
          <mxGeometry x="102" y="60" width="138" height="34" as="geometry" />
        </mxCell>
        <mxCell id="QSkCT-27QQO0lxmMkj0a-11" value="前端 (Vue.js + Vant UI)" style="whiteSpace=wrap;strokeWidth=2;" vertex="1" parent="1">
          <mxGeometry x="287" y="129" width="177" height="34" as="geometry" />
        </mxCell>
        <mxCell id="QSkCT-27QQO0lxmMkj0a-12" value="" style="curved=1;startArrow=none;endArrow=block;exitX=0.4986413043478261;exitY=0.9901961158303654;entryX=0.30832988668846245;entryY=-0.00980388416963465;rounded=0;" edge="1" parent="1" source="QSkCT-27QQO0lxmMkj0a-10" target="QSkCT-27QQO0lxmMkj0a-11">
          <mxGeometry relative="1" as="geometry">
            <Array as="points">
              <mxPoint x="292" y="104" />
            </Array>
          </mxGeometry>
        </mxCell>
        <mxCell id="QSkCT-27QQO0lxmMkj0a-13" value="" style="curved=1;startArrow=none;endArrow=block;exitX=0.4976312454137425;exitY=0.9803922316607308;entryX=0.5004639680358185;entryY=0.009803996366613051;rounded=0;" edge="1" parent="1" source="QSkCT-27QQO0lxmMkj0a-11" target="QSkCT-27QQO0lxmMkj0a-5">
          <mxGeometry relative="1" as="geometry">
            <Array as="points" />
          </mxGeometry>
        </mxCell>
        <mxCell id="QSkCT-27QQO0lxmMkj0a-14" value="" style="curved=1;startArrow=none;endArrow=block;exitX=0.5004639680358185;exitY=1.0000001121969784;entryX=0.5005850031755973;entryY=1.1219697840073529e-7;rounded=0;" edge="1" parent="1" source="QSkCT-27QQO0lxmMkj0a-5" target="QSkCT-27QQO0lxmMkj0a-6">
          <mxGeometry relative="1" as="geometry">
            <Array as="points" />
          </mxGeometry>
        </mxCell>
        <mxCell id="QSkCT-27QQO0lxmMkj0a-15" value="" style="curved=1;startArrow=none;endArrow=block;exitX=0.06870930706403516;exitY=0.9901962280273438;entryX=0.4999091569767442;entryY=-0.00980377197265625;rounded=0;" edge="1" parent="1" source="QSkCT-27QQO0lxmMkj0a-6" target="QSkCT-27QQO0lxmMkj0a-7">
          <mxGeometry relative="1" as="geometry">
            <Array as="points">
              <mxPoint x="227" y="405" />
            </Array>
          </mxGeometry>
        </mxCell>
        <mxCell id="QSkCT-27QQO0lxmMkj0a-16" value="" style="curved=1;startArrow=none;endArrow=block;exitX=0.9324606992871594;exitY=0.9901962280273438;entryX=0.4979376568890258;entryY=-0.00980377197265625;rounded=0;" edge="1" parent="1" source="QSkCT-27QQO0lxmMkj0a-6" target="QSkCT-27QQO0lxmMkj0a-8">
          <mxGeometry relative="1" as="geometry">
            <Array as="points">
              <mxPoint x="523" y="405" />
            </Array>
          </mxGeometry>
        </mxCell>
        <mxCell id="QSkCT-27QQO0lxmMkj0a-17" value="" style="curved=1;startArrow=none;endArrow=block;exitX=0.4999091569767442;exitY=0.9803923438577091;entryX=0.49972587719298245;entryY=0.009804108563591452;rounded=0;" edge="1" parent="1" source="QSkCT-27QQO0lxmMkj0a-7" target="QSkCT-27QQO0lxmMkj0a-2">
          <mxGeometry relative="1" as="geometry">
            <Array as="points" />
          </mxGeometry>
        </mxCell>
        <mxCell id="QSkCT-27QQO0lxmMkj0a-18" value="" style="curved=1;startArrow=none;endArrow=block;exitX=0.4979376568890258;exitY=0.9803923438577091;entryX=0.49620630711684993;entryY=0.009804108563591452;rounded=0;" edge="1" parent="1" source="QSkCT-27QQO0lxmMkj0a-8" target="QSkCT-27QQO0lxmMkj0a-3">
          <mxGeometry relative="1" as="geometry">
            <Array as="points" />
          </mxGeometry>
        </mxCell>
        <mxCell id="QSkCT-27QQO0lxmMkj0a-19" style="rounded=0;orthogonalLoop=1;jettySize=auto;html=1;exitX=0.5;exitY=1;exitDx=0;exitDy=0;entryX=0.5;entryY=0;entryDx=0;entryDy=0;" edge="1" parent="1" source="QSkCT-27QQO0lxmMkj0a-20" target="QSkCT-27QQO0lxmMkj0a-11">
          <mxGeometry relative="1" as="geometry" />
        </mxCell>
        <mxCell id="QSkCT-27QQO0lxmMkj0a-20" value="日历视图页" style="whiteSpace=wrap;strokeWidth=2;" vertex="1" parent="1">
          <mxGeometry x="262" y="60" width="138" height="34" as="geometry" />
        </mxCell>
        <mxCell id="QSkCT-27QQO0lxmMkj0a-21" style="rounded=0;orthogonalLoop=1;jettySize=auto;html=1;exitX=0.5;exitY=1;exitDx=0;exitDy=0;entryX=0.75;entryY=0;entryDx=0;entryDy=0;" edge="1" parent="1" source="QSkCT-27QQO0lxmMkj0a-22" target="QSkCT-27QQO0lxmMkj0a-11">
          <mxGeometry relative="1" as="geometry" />
        </mxCell>
        <mxCell id="QSkCT-27QQO0lxmMkj0a-22" value="统计分析页" style="whiteSpace=wrap;strokeWidth=2;" vertex="1" parent="1">
          <mxGeometry x="412" y="60" width="138" height="34" as="geometry" />
        </mxCell>
        <mxCell id="QSkCT-27QQO0lxmMkj0a-23" style="rounded=0;orthogonalLoop=1;jettySize=auto;html=1;exitX=0.5;exitY=1;exitDx=0;exitDy=0;entryX=1;entryY=0;entryDx=0;entryDy=0;" edge="1" parent="1" source="QSkCT-27QQO0lxmMkj0a-24" target="QSkCT-27QQO0lxmMkj0a-11">
          <mxGeometry relative="1" as="geometry" />
        </mxCell>
        <mxCell id="QSkCT-27QQO0lxmMkj0a-24" value="账单录入" style="whiteSpace=wrap;strokeWidth=2;" vertex="1" parent="1">
          <mxGeometry x="572" y="60" width="138" height="34" as="geometry" />
        </mxCell>
      </root>
    </mxGraphModel>
  </diagram>
  <diagram id="9_TgPMW42HGxaG9ToHx-" name="功能架构图">
    <mxGraphModel dx="1221" dy="618" grid="1" gridSize="10" guides="1" tooltips="1" connect="1" arrows="1" fold="1" page="1" pageScale="1" pageWidth="827" pageHeight="1169" math="0" shadow="0">
      <root>
        <mxCell id="0" />
        <mxCell id="1" parent="0" />
        <mxCell id="wRnytyM9bnB2fyKdIqF7-1" value="" style="rounded=1;whiteSpace=wrap;html=1;fontStyle=1;strokeWidth=2;" vertex="1" parent="1">
          <mxGeometry x="240" y="50" width="560" height="100" as="geometry" />
        </mxCell>
        <mxCell id="wRnytyM9bnB2fyKdIqF7-2" value="" style="rounded=1;whiteSpace=wrap;html=1;fontStyle=1;strokeWidth=2;" vertex="1" parent="1">
          <mxGeometry x="240" y="242.5" width="613" height="101.5" as="geometry" />
        </mxCell>
        <mxCell id="wRnytyM9bnB2fyKdIqF7-3" value="" style="rounded=1;whiteSpace=wrap;html=1;fontStyle=1;strokeWidth=2;" vertex="1" parent="1">
          <mxGeometry x="240" y="430" width="390" height="90" as="geometry" />
        </mxCell>
        <mxCell id="wRnytyM9bnB2fyKdIqF7-4" value="日历视图" style="rounded=1;whiteSpace=wrap;html=1;fontStyle=1;strokeWidth=2;" vertex="1" parent="1">
          <mxGeometry x="510" y="70" width="120" height="60" as="geometry" />
        </mxCell>
        <mxCell id="wRnytyM9bnB2fyKdIqF7-5" style="edgeStyle=orthogonalEdgeStyle;rounded=0;orthogonalLoop=1;jettySize=auto;html=1;exitX=0.5;exitY=1;exitDx=0;exitDy=0;entryX=0.5;entryY=0;entryDx=0;entryDy=0;startArrow=classic;startFill=1;curved=1;fontStyle=1;strokeWidth=2;" edge="1" parent="1" source="wRnytyM9bnB2fyKdIqF7-8" target="wRnytyM9bnB2fyKdIqF7-10">
          <mxGeometry relative="1" as="geometry" />
        </mxCell>
        <mxCell id="wRnytyM9bnB2fyKdIqF7-6" style="edgeStyle=orthogonalEdgeStyle;rounded=0;orthogonalLoop=1;jettySize=auto;html=1;exitX=0.5;exitY=0;exitDx=0;exitDy=0;entryX=0.5;entryY=1;entryDx=0;entryDy=0;curved=1;fontStyle=1;strokeWidth=2;" edge="1" parent="1" source="wRnytyM9bnB2fyKdIqF7-8" target="wRnytyM9bnB2fyKdIqF7-9">
          <mxGeometry relative="1" as="geometry" />
        </mxCell>
        <mxCell id="wRnytyM9bnB2fyKdIqF7-7" style="edgeStyle=orthogonalEdgeStyle;rounded=0;orthogonalLoop=1;jettySize=auto;html=1;exitX=0.75;exitY=0;exitDx=0;exitDy=0;entryX=0.25;entryY=1;entryDx=0;entryDy=0;curved=1;fontStyle=1;strokeWidth=2;" edge="1" parent="1" source="wRnytyM9bnB2fyKdIqF7-8" target="wRnytyM9bnB2fyKdIqF7-4">
          <mxGeometry relative="1" as="geometry" />
        </mxCell>
        <mxCell id="wRnytyM9bnB2fyKdIqF7-8" value="账单管理模块" style="rounded=1;whiteSpace=wrap;html=1;fontStyle=1;strokeWidth=2;" vertex="1" parent="1">
          <mxGeometry x="260" y="260" width="120" height="60" as="geometry" />
        </mxCell>
        <mxCell id="wRnytyM9bnB2fyKdIqF7-9" value="账单统计模块" style="rounded=1;whiteSpace=wrap;html=1;fontStyle=1;strokeWidth=2;" vertex="1" parent="1">
          <mxGeometry x="265" y="70" width="120" height="60" as="geometry" />
        </mxCell>
        <mxCell id="wRnytyM9bnB2fyKdIqF7-10" value="MySQL" style="shape=datastore;whiteSpace=wrap;html=1;fontStyle=1;strokeWidth=2;" vertex="1" parent="1">
          <mxGeometry x="280" y="445" width="60" height="60" as="geometry" />
        </mxCell>
        <mxCell id="wRnytyM9bnB2fyKdIqF7-11" value="GPT模型" style="rounded=1;whiteSpace=wrap;html=1;fontStyle=1;strokeWidth=2;" vertex="1" parent="1">
          <mxGeometry x="520" y="451.25" width="80" height="47.5" as="geometry" />
        </mxCell>
        <mxCell id="wRnytyM9bnB2fyKdIqF7-12" style="rounded=0;orthogonalLoop=1;jettySize=auto;html=1;exitX=0.5;exitY=1;exitDx=0;exitDy=0;entryX=0.5;entryY=0;entryDx=0;entryDy=0;edgeStyle=orthogonalEdgeStyle;curved=1;fontStyle=1;strokeWidth=2;" edge="1" parent="1" source="wRnytyM9bnB2fyKdIqF7-21" target="wRnytyM9bnB2fyKdIqF7-11">
          <mxGeometry relative="1" as="geometry" />
        </mxCell>
        <mxCell id="wRnytyM9bnB2fyKdIqF7-13" style="edgeStyle=orthogonalEdgeStyle;rounded=0;orthogonalLoop=1;jettySize=auto;html=1;exitX=0.5;exitY=1;exitDx=0;exitDy=0;entryX=0.576;entryY=0.028;entryDx=0;entryDy=0;curved=1;fontStyle=1;strokeWidth=2;entryPerimeter=0;" edge="1" parent="1" source="wRnytyM9bnB2fyKdIqF7-14" target="wRnytyM9bnB2fyKdIqF7-20">
          <mxGeometry relative="1" as="geometry" />
        </mxCell>
        <mxCell id="wRnytyM9bnB2fyKdIqF7-14" value="自然语言录入" style="rounded=1;whiteSpace=wrap;html=1;fontStyle=1;strokeWidth=2;" vertex="1" parent="1">
          <mxGeometry x="650" y="70" width="120" height="60" as="geometry" />
        </mxCell>
        <mxCell id="wRnytyM9bnB2fyKdIqF7-15" value="&lt;span style=&quot;color: rgb(0, 0, 0); font-family: Helvetica; font-size: 12px; font-style: normal; font-variant-ligatures: normal; font-variant-caps: normal; letter-spacing: normal; orphans: 2; text-align: center; text-indent: 0px; text-transform: none; widows: 2; word-spacing: 0px; -webkit-text-stroke-width: 0px; background-color: rgb(251, 251, 251); text-decoration-thickness: initial; text-decoration-style: initial; text-decoration-color: initial; float: none; display: inline !important;&quot;&gt;后端服务层&lt;/span&gt;" style="text;whiteSpace=wrap;html=1;fontStyle=1;strokeWidth=2;" vertex="1" parent="1">
          <mxGeometry x="440" y="220" width="90" height="40" as="geometry" />
        </mxCell>
        <mxCell id="wRnytyM9bnB2fyKdIqF7-16" value="&lt;span style=&quot;color: rgb(0, 0, 0); font-family: Helvetica; font-size: 12px; font-style: normal; font-variant-ligatures: normal; font-variant-caps: normal; letter-spacing: normal; orphans: 2; text-align: center; text-indent: 0px; text-transform: none; widows: 2; word-spacing: 0px; -webkit-text-stroke-width: 0px; background-color: rgb(251, 251, 251); text-decoration-thickness: initial; text-decoration-style: initial; text-decoration-color: initial; float: none; display: inline !important;&quot;&gt;用户界面层&lt;/span&gt;" style="text;whiteSpace=wrap;html=1;fontStyle=1;strokeWidth=2;" vertex="1" parent="1">
          <mxGeometry x="460" y="20" width="90" height="40" as="geometry" />
        </mxCell>
        <mxCell id="wRnytyM9bnB2fyKdIqF7-17" value="&lt;span style=&quot;color: rgb(0, 0, 0); font-family: Helvetica; font-size: 12px; font-style: normal; font-variant-ligatures: normal; font-variant-caps: normal; letter-spacing: normal; orphans: 2; text-align: center; text-indent: 0px; text-transform: none; widows: 2; word-spacing: 0px; -webkit-text-stroke-width: 0px; background-color: rgb(251, 251, 251); text-decoration-thickness: initial; text-decoration-style: initial; text-decoration-color: initial; float: none; display: inline !important;&quot;&gt;数据库层与外部服务&lt;/span&gt;" style="text;whiteSpace=wrap;html=1;fontStyle=1;strokeWidth=2;" vertex="1" parent="1">
          <mxGeometry x="390" y="405" width="140" height="40" as="geometry" />
        </mxCell>
        <mxCell id="wRnytyM9bnB2fyKdIqF7-18" value="用户管理模块" style="rounded=1;whiteSpace=wrap;html=1;fontStyle=1;strokeWidth=2;" vertex="1" parent="1">
          <mxGeometry x="417" y="260" width="120" height="60" as="geometry" />
        </mxCell>
        <mxCell id="wRnytyM9bnB2fyKdIqF7-19" style="edgeStyle=none;rounded=0;orthogonalLoop=1;jettySize=auto;html=1;exitX=1;exitY=0.5;exitDx=0;exitDy=0;entryX=0;entryY=0.5;entryDx=0;entryDy=0;fontStyle=1;strokeWidth=2;" edge="1" parent="1" source="wRnytyM9bnB2fyKdIqF7-20" target="wRnytyM9bnB2fyKdIqF7-21">
          <mxGeometry relative="1" as="geometry" />
        </mxCell>
        <mxCell id="wRnytyM9bnB2fyKdIqF7-20" value="自然语言处理模块" style="rounded=1;whiteSpace=wrap;html=1;fontStyle=1;strokeWidth=2;" vertex="1" parent="1">
          <mxGeometry x="550" y="260" width="145" height="58" as="geometry" />
        </mxCell>
        <mxCell id="wRnytyM9bnB2fyKdIqF7-21" value="AI 交互模块" style="rounded=1;whiteSpace=wrap;html=1;fontStyle=1;strokeWidth=2;" vertex="1" parent="1">
          <mxGeometry x="721" y="259" width="120" height="60" as="geometry" />
        </mxCell>
      </root>
    </mxGraphModel>
  </diagram>
  <diagram id="6y2-3gy3OWtHWnKLq4Yx" name="用例图">
    <mxGraphModel grid="0" page="0" gridSize="10" guides="1" tooltips="1" connect="1" arrows="1" fold="1" pageScale="1" pageWidth="827" pageHeight="1169" math="0" shadow="0">
      <root>
        <mxCell id="0" />
        <mxCell id="1" parent="0" />
        <mxCell id="Osbx_EENR6xcQlzmfpFu-58" value="" style="rounded=0;whiteSpace=wrap;html=1;fontStyle=1" vertex="1" parent="1">
          <mxGeometry x="137" y="332" width="376" height="619" as="geometry" />
        </mxCell>
        <mxCell id="Osbx_EENR6xcQlzmfpFu-7" value="" style="startArrow=none;endArrow=block;entryX=0.04;entryY=0.294;rounded=0;exitX=0.5;exitY=0.5;exitDx=0;exitDy=0;exitPerimeter=0;orthogonal=1;fontStyle=1;entryDx=0;entryDy=0;entryPerimeter=0;" edge="1" parent="1" source="Osbx_EENR6xcQlzmfpFu-43" target="Osbx_EENR6xcQlzmfpFu-57">
          <mxGeometry relative="1" as="geometry">
            <mxPoint x="351" y="43.81632653061229" as="sourcePoint" />
            <mxPoint x="189.5" y="650" as="targetPoint" />
          </mxGeometry>
        </mxCell>
        <mxCell id="Osbx_EENR6xcQlzmfpFu-9" value="" style="startArrow=none;endArrow=block;exitX=0.5;exitY=0.5;rounded=0;exitDx=0;exitDy=0;exitPerimeter=0;orthogonal=1;fontStyle=1;entryX=0;entryY=0.5;entryDx=0;entryDy=0;entryPerimeter=0;" edge="1" parent="1" source="Osbx_EENR6xcQlzmfpFu-43" target="Osbx_EENR6xcQlzmfpFu-53">
          <mxGeometry relative="1" as="geometry">
            <mxPoint x="374.9795918367347" y="57" as="sourcePoint" />
            <mxPoint x="195" y="456" as="targetPoint" />
          </mxGeometry>
        </mxCell>
        <mxCell id="Osbx_EENR6xcQlzmfpFu-18" value="" style="startArrow=none;endArrow=block;rounded=0;orthogonal=1;fontStyle=1;exitX=0.5;exitY=0.5;exitDx=0;exitDy=0;exitPerimeter=0;entryX=0;entryY=0.5;entryDx=0;entryDy=0;entryPerimeter=0;" edge="1" parent="1" source="Osbx_EENR6xcQlzmfpFu-46" target="Osbx_EENR6xcQlzmfpFu-73">
          <mxGeometry relative="1" as="geometry">
            <mxPoint x="429" y="1992" as="sourcePoint" />
            <mxPoint x="167" y="1749" as="targetPoint" />
          </mxGeometry>
        </mxCell>
        <mxCell id="Osbx_EENR6xcQlzmfpFu-62" style="rounded=0;orthogonalLoop=1;jettySize=auto;html=1;exitX=0.5;exitY=0.5;exitDx=0;exitDy=0;exitPerimeter=0;" edge="1" parent="1" source="Osbx_EENR6xcQlzmfpFu-43" target="Osbx_EENR6xcQlzmfpFu-61">
          <mxGeometry relative="1" as="geometry" />
        </mxCell>
        <mxCell id="Osbx_EENR6xcQlzmfpFu-63" style="edgeStyle=none;rounded=0;orthogonalLoop=1;jettySize=auto;html=1;exitX=0.5;exitY=0.5;exitDx=0;exitDy=0;exitPerimeter=0;entryX=0.07;entryY=0.228;entryDx=0;entryDy=0;entryPerimeter=0;" edge="1" parent="1" source="Osbx_EENR6xcQlzmfpFu-43" target="Osbx_EENR6xcQlzmfpFu-60">
          <mxGeometry relative="1" as="geometry" />
        </mxCell>
        <mxCell id="Osbx_EENR6xcQlzmfpFu-43" value="用户" style="shape=umlActor;verticalLabelPosition=bottom;verticalAlign=top;html=1;outlineConnect=0;fontStyle=1" vertex="1" parent="1">
          <mxGeometry x="-3" y="564" width="30" height="60" as="geometry" />
        </mxCell>
        <mxCell id="Osbx_EENR6xcQlzmfpFu-94" style="edgeStyle=none;rounded=0;orthogonalLoop=1;jettySize=auto;html=1;exitX=0.5;exitY=0.5;exitDx=0;exitDy=0;exitPerimeter=0;" edge="1" parent="1" source="Osbx_EENR6xcQlzmfpFu-44" target="Osbx_EENR6xcQlzmfpFu-90">
          <mxGeometry relative="1" as="geometry" />
        </mxCell>
        <mxCell id="Osbx_EENR6xcQlzmfpFu-44" value="用户" style="shape=umlActor;verticalLabelPosition=bottom;verticalAlign=top;html=1;outlineConnect=0;fontStyle=1" vertex="1" parent="1">
          <mxGeometry x="-7" y="1428.5" width="30" height="60" as="geometry" />
        </mxCell>
        <mxCell id="Osbx_EENR6xcQlzmfpFu-87" style="edgeStyle=none;rounded=0;orthogonalLoop=1;jettySize=auto;html=1;exitX=0.5;exitY=0.5;exitDx=0;exitDy=0;exitPerimeter=0;" edge="1" parent="1" source="Osbx_EENR6xcQlzmfpFu-45" target="Osbx_EENR6xcQlzmfpFu-85">
          <mxGeometry relative="1" as="geometry" />
        </mxCell>
        <mxCell id="Osbx_EENR6xcQlzmfpFu-45" value="用户" style="shape=umlActor;verticalLabelPosition=bottom;verticalAlign=top;html=1;outlineConnect=0;fontStyle=1" vertex="1" parent="1">
          <mxGeometry x="2" y="1091" width="30" height="60" as="geometry" />
        </mxCell>
        <mxCell id="Osbx_EENR6xcQlzmfpFu-46" value="用户" style="shape=umlActor;verticalLabelPosition=bottom;verticalAlign=top;html=1;outlineConnect=0;fontStyle=1" vertex="1" parent="1">
          <mxGeometry x="6" y="1744" width="30" height="60" as="geometry" />
        </mxCell>
        <mxCell id="Osbx_EENR6xcQlzmfpFu-50" value="用户" style="shape=umlActor;verticalLabelPosition=bottom;verticalAlign=top;html=1;outlineConnect=0;fontStyle=1" vertex="1" parent="1">
          <mxGeometry x="-3" y="1243" width="30" height="60" as="geometry" />
        </mxCell>
        <mxCell id="Osbx_EENR6xcQlzmfpFu-69" style="edgeStyle=none;rounded=0;orthogonalLoop=1;jettySize=auto;html=1;exitX=0.855;exitY=0.855;exitDx=0;exitDy=0;exitPerimeter=0;" edge="1" parent="1" source="Osbx_EENR6xcQlzmfpFu-53" target="Osbx_EENR6xcQlzmfpFu-55">
          <mxGeometry relative="1" as="geometry" />
        </mxCell>
        <mxCell id="Osbx_EENR6xcQlzmfpFu-53" value="&lt;span style=&quot;font-size: 11px; text-wrap: nowrap;&quot;&gt;信息维护&lt;/span&gt;" style="strokeWidth=2;html=1;shape=mxgraph.flowchart.start_1;whiteSpace=wrap;fontStyle=1" vertex="1" parent="1">
          <mxGeometry x="180" y="542" width="100" height="60" as="geometry" />
        </mxCell>
        <mxCell id="Osbx_EENR6xcQlzmfpFu-54" value="用户登录" style="strokeWidth=2;html=1;shape=mxgraph.flowchart.start_1;whiteSpace=wrap;fontStyle=1" vertex="1" parent="1">
          <mxGeometry x="199" y="441" width="100" height="60" as="geometry" />
        </mxCell>
        <mxCell id="Osbx_EENR6xcQlzmfpFu-55" value="&lt;span style=&quot;font-size: 11px; text-wrap: nowrap;&quot;&gt;修改支出事项&lt;/span&gt;" style="strokeWidth=2;html=1;shape=mxgraph.flowchart.start_1;whiteSpace=wrap;fontStyle=1" vertex="1" parent="1">
          <mxGeometry x="344" y="554" width="100" height="60" as="geometry" />
        </mxCell>
        <mxCell id="Osbx_EENR6xcQlzmfpFu-56" value="&lt;span style=&quot;font-size: 11px; text-wrap: nowrap;&quot;&gt;修改付款对象&lt;/span&gt;" style="strokeWidth=2;html=1;shape=mxgraph.flowchart.start_1;whiteSpace=wrap;fontStyle=1" vertex="1" parent="1">
          <mxGeometry x="344" y="636" width="100" height="60" as="geometry" />
        </mxCell>
        <mxCell id="Osbx_EENR6xcQlzmfpFu-57" value="&lt;span style=&quot;font-size: 11px; text-wrap: nowrap;&quot;&gt;账单录入&lt;/span&gt;" style="strokeWidth=2;html=1;shape=mxgraph.flowchart.start_1;whiteSpace=wrap;fontStyle=1" vertex="1" parent="1">
          <mxGeometry x="184" y="642" width="100" height="60" as="geometry" />
        </mxCell>
        <mxCell id="Osbx_EENR6xcQlzmfpFu-59" value="AI 个人记账系统" style="text;strokeColor=none;align=center;fillColor=none;html=1;verticalAlign=middle;whiteSpace=wrap;rounded=0;fontStyle=1" vertex="1" parent="1">
          <mxGeometry x="284" y="332" width="96" height="32" as="geometry" />
        </mxCell>
        <mxCell id="Osbx_EENR6xcQlzmfpFu-81" style="edgeStyle=none;rounded=0;orthogonalLoop=1;jettySize=auto;html=1;exitX=1;exitY=0.5;exitDx=0;exitDy=0;exitPerimeter=0;" edge="1" parent="1" source="Osbx_EENR6xcQlzmfpFu-60" target="Osbx_EENR6xcQlzmfpFu-79">
          <mxGeometry relative="1" as="geometry" />
        </mxCell>
        <mxCell id="Osbx_EENR6xcQlzmfpFu-60" value="&lt;span style=&quot;font-size: 11px; text-wrap: nowrap;&quot;&gt;历史账单&lt;/span&gt;&lt;span style=&quot;font-size: 11px; text-wrap: nowrap;&quot;&gt;查看&lt;/span&gt;" style="strokeWidth=2;html=1;shape=mxgraph.flowchart.start_1;whiteSpace=wrap;fontStyle=1" vertex="1" parent="1">
          <mxGeometry x="177" y="754" width="100" height="60" as="geometry" />
        </mxCell>
        <mxCell id="Osbx_EENR6xcQlzmfpFu-61" value="&lt;span style=&quot;font-size: 11px; text-wrap: nowrap;&quot;&gt;查看账单数据分析&lt;/span&gt;" style="strokeWidth=2;html=1;shape=mxgraph.flowchart.start_1;whiteSpace=wrap;fontStyle=1" vertex="1" parent="1">
          <mxGeometry x="160" y="873" width="100" height="60" as="geometry" />
        </mxCell>
        <mxCell id="Osbx_EENR6xcQlzmfpFu-64" style="edgeStyle=none;rounded=0;orthogonalLoop=1;jettySize=auto;html=1;exitX=0.5;exitY=0.5;exitDx=0;exitDy=0;exitPerimeter=0;entryX=0.063;entryY=0.678;entryDx=0;entryDy=0;entryPerimeter=0;" edge="1" parent="1" source="Osbx_EENR6xcQlzmfpFu-43" target="Osbx_EENR6xcQlzmfpFu-54">
          <mxGeometry relative="1" as="geometry" />
        </mxCell>
        <mxCell id="Osbx_EENR6xcQlzmfpFu-67" value="&lt;span style=&quot;font-size: 11px; text-wrap: nowrap;&quot;&gt;修改支出分类&lt;/span&gt;" style="strokeWidth=2;html=1;shape=mxgraph.flowchart.start_1;whiteSpace=wrap;fontStyle=1" vertex="1" parent="1">
          <mxGeometry x="347" y="476" width="100" height="60" as="geometry" />
        </mxCell>
        <mxCell id="Osbx_EENR6xcQlzmfpFu-68" style="edgeStyle=none;rounded=0;orthogonalLoop=1;jettySize=auto;html=1;exitX=1;exitY=0.5;exitDx=0;exitDy=0;exitPerimeter=0;entryX=0;entryY=0.5;entryDx=0;entryDy=0;entryPerimeter=0;" edge="1" parent="1" source="Osbx_EENR6xcQlzmfpFu-53" target="Osbx_EENR6xcQlzmfpFu-67">
          <mxGeometry relative="1" as="geometry" />
        </mxCell>
        <mxCell id="Osbx_EENR6xcQlzmfpFu-70" style="edgeStyle=none;rounded=0;orthogonalLoop=1;jettySize=auto;html=1;exitX=0.855;exitY=0.855;exitDx=0;exitDy=0;exitPerimeter=0;entryX=0;entryY=0.5;entryDx=0;entryDy=0;entryPerimeter=0;" edge="1" parent="1" source="Osbx_EENR6xcQlzmfpFu-53" target="Osbx_EENR6xcQlzmfpFu-56">
          <mxGeometry relative="1" as="geometry" />
        </mxCell>
        <mxCell id="Osbx_EENR6xcQlzmfpFu-71" value="用户注册" style="strokeWidth=2;html=1;shape=mxgraph.flowchart.start_1;whiteSpace=wrap;fontStyle=1" vertex="1" parent="1">
          <mxGeometry x="162" y="352" width="100" height="60" as="geometry" />
        </mxCell>
        <mxCell id="Osbx_EENR6xcQlzmfpFu-72" style="edgeStyle=none;rounded=0;orthogonalLoop=1;jettySize=auto;html=1;exitX=0.5;exitY=0.5;exitDx=0;exitDy=0;exitPerimeter=0;entryX=0;entryY=0.5;entryDx=0;entryDy=0;entryPerimeter=0;" edge="1" parent="1" source="Osbx_EENR6xcQlzmfpFu-43" target="Osbx_EENR6xcQlzmfpFu-71">
          <mxGeometry relative="1" as="geometry" />
        </mxCell>
        <mxCell id="Osbx_EENR6xcQlzmfpFu-73" value="&lt;span style=&quot;font-size: 11px; text-wrap: nowrap;&quot;&gt;查看历史账单&lt;/span&gt;" style="strokeWidth=2;html=1;shape=mxgraph.flowchart.start_1;whiteSpace=wrap;fontStyle=1" vertex="1" parent="1">
          <mxGeometry x="141" y="1719" width="100" height="60" as="geometry" />
        </mxCell>
        <mxCell id="Osbx_EENR6xcQlzmfpFu-74" value="&lt;span style=&quot;font-size: 11px; text-wrap: nowrap;&quot;&gt;修改账单&lt;/span&gt;" style="strokeWidth=2;html=1;shape=mxgraph.flowchart.start_1;whiteSpace=wrap;fontStyle=1" vertex="1" parent="1">
          <mxGeometry x="144" y="1813" width="100" height="60" as="geometry" />
        </mxCell>
        <mxCell id="Osbx_EENR6xcQlzmfpFu-78" style="edgeStyle=none;rounded=0;orthogonalLoop=1;jettySize=auto;html=1;exitX=0.5;exitY=0.5;exitDx=0;exitDy=0;exitPerimeter=0;entryX=0;entryY=0.5;entryDx=0;entryDy=0;entryPerimeter=0;" edge="1" parent="1" source="Osbx_EENR6xcQlzmfpFu-46" target="Osbx_EENR6xcQlzmfpFu-74">
          <mxGeometry relative="1" as="geometry" />
        </mxCell>
        <mxCell id="Osbx_EENR6xcQlzmfpFu-83" style="edgeStyle=none;rounded=0;orthogonalLoop=1;jettySize=auto;html=1;exitX=0.943;exitY=0.261;exitDx=0;exitDy=0;exitPerimeter=0;" edge="1" parent="1" source="Osbx_EENR6xcQlzmfpFu-79" target="Osbx_EENR6xcQlzmfpFu-82">
          <mxGeometry relative="1" as="geometry" />
        </mxCell>
        <mxCell id="Osbx_EENR6xcQlzmfpFu-79" value="&lt;span style=&quot;font-size: 11px; text-wrap: nowrap;&quot;&gt;修改账单&lt;/span&gt;" style="strokeWidth=2;html=1;shape=mxgraph.flowchart.start_1;whiteSpace=wrap;fontStyle=1" vertex="1" parent="1">
          <mxGeometry x="292" y="817" width="100" height="60" as="geometry" />
        </mxCell>
        <mxCell id="Osbx_EENR6xcQlzmfpFu-82" value="&lt;span style=&quot;&quot;&gt;上传图片&lt;/span&gt;" style="strokeWidth=2;html=1;shape=mxgraph.flowchart.start_1;whiteSpace=wrap;fontStyle=1" vertex="1" parent="1">
          <mxGeometry x="385" y="757" width="100" height="60" as="geometry" />
        </mxCell>
        <mxCell id="Osbx_EENR6xcQlzmfpFu-84" value="用户注册" style="strokeWidth=2;html=1;shape=mxgraph.flowchart.start_1;whiteSpace=wrap;fontStyle=1" vertex="1" parent="1">
          <mxGeometry x="144" y="1060" width="100" height="60" as="geometry" />
        </mxCell>
        <mxCell id="Osbx_EENR6xcQlzmfpFu-85" value="用户登录" style="strokeWidth=2;html=1;shape=mxgraph.flowchart.start_1;whiteSpace=wrap;fontStyle=1" vertex="1" parent="1">
          <mxGeometry x="144" y="1148" width="100" height="60" as="geometry" />
        </mxCell>
        <mxCell id="Osbx_EENR6xcQlzmfpFu-86" style="edgeStyle=none;rounded=0;orthogonalLoop=1;jettySize=auto;html=1;exitX=0.5;exitY=0.5;exitDx=0;exitDy=0;exitPerimeter=0;entryX=0;entryY=0.5;entryDx=0;entryDy=0;entryPerimeter=0;" edge="1" parent="1" source="Osbx_EENR6xcQlzmfpFu-45" target="Osbx_EENR6xcQlzmfpFu-84">
          <mxGeometry relative="1" as="geometry" />
        </mxCell>
        <mxCell id="Osbx_EENR6xcQlzmfpFu-88" value="&lt;span style=&quot;font-size: 11px; text-wrap: nowrap;&quot;&gt;录入账单&lt;/span&gt;" style="strokeWidth=2;html=1;shape=mxgraph.flowchart.start_1;whiteSpace=wrap;fontStyle=1" vertex="1" parent="1">
          <mxGeometry x="141" y="1248" width="100" height="60" as="geometry" />
        </mxCell>
        <mxCell id="Osbx_EENR6xcQlzmfpFu-89" style="edgeStyle=none;rounded=0;orthogonalLoop=1;jettySize=auto;html=1;exitX=0.5;exitY=0.5;exitDx=0;exitDy=0;exitPerimeter=0;entryX=0;entryY=0.5;entryDx=0;entryDy=0;entryPerimeter=0;" edge="1" parent="1" source="Osbx_EENR6xcQlzmfpFu-50" target="Osbx_EENR6xcQlzmfpFu-88">
          <mxGeometry relative="1" as="geometry" />
        </mxCell>
        <mxCell id="Osbx_EENR6xcQlzmfpFu-90" value="&lt;span style=&quot;font-size: 11px; text-wrap: nowrap;&quot;&gt;修改支出事项&lt;/span&gt;" style="strokeWidth=2;html=1;shape=mxgraph.flowchart.start_1;whiteSpace=wrap;fontStyle=1" vertex="1" parent="1">
          <mxGeometry x="150" y="1437" width="100" height="60" as="geometry" />
        </mxCell>
        <mxCell id="Osbx_EENR6xcQlzmfpFu-91" value="&lt;span style=&quot;font-size: 11px; text-wrap: nowrap;&quot;&gt;修改付款对象&lt;/span&gt;" style="strokeWidth=2;html=1;shape=mxgraph.flowchart.start_1;whiteSpace=wrap;fontStyle=1" vertex="1" parent="1">
          <mxGeometry x="150" y="1517" width="100" height="60" as="geometry" />
        </mxCell>
        <mxCell id="Osbx_EENR6xcQlzmfpFu-92" value="&lt;span style=&quot;font-size: 11px; text-wrap: nowrap;&quot;&gt;修改支出分类&lt;/span&gt;" style="strokeWidth=2;html=1;shape=mxgraph.flowchart.start_1;whiteSpace=wrap;fontStyle=1" vertex="1" parent="1">
          <mxGeometry x="148" y="1357" width="100" height="60" as="geometry" />
        </mxCell>
        <mxCell id="Osbx_EENR6xcQlzmfpFu-93" style="edgeStyle=none;rounded=0;orthogonalLoop=1;jettySize=auto;html=1;exitX=0.5;exitY=0.5;exitDx=0;exitDy=0;exitPerimeter=0;entryX=0;entryY=0.5;entryDx=0;entryDy=0;entryPerimeter=0;" edge="1" parent="1" source="Osbx_EENR6xcQlzmfpFu-44" target="Osbx_EENR6xcQlzmfpFu-92">
          <mxGeometry relative="1" as="geometry" />
        </mxCell>
        <mxCell id="Osbx_EENR6xcQlzmfpFu-95" style="edgeStyle=none;rounded=0;orthogonalLoop=1;jettySize=auto;html=1;exitX=0.5;exitY=0.5;exitDx=0;exitDy=0;exitPerimeter=0;entryX=0;entryY=0.5;entryDx=0;entryDy=0;entryPerimeter=0;" edge="1" parent="1" source="Osbx_EENR6xcQlzmfpFu-44" target="Osbx_EENR6xcQlzmfpFu-91">
          <mxGeometry relative="1" as="geometry" />
        </mxCell>
        <mxCell id="Osbx_EENR6xcQlzmfpFu-96" value="&lt;span style=&quot;&quot;&gt;上传图片&lt;/span&gt;" style="strokeWidth=2;html=1;shape=mxgraph.flowchart.start_1;whiteSpace=wrap;fontStyle=1" vertex="1" parent="1">
          <mxGeometry x="303" y="1791" width="100" height="60" as="geometry" />
        </mxCell>
        <mxCell id="Osbx_EENR6xcQlzmfpFu-97" style="edgeStyle=none;rounded=0;orthogonalLoop=1;jettySize=auto;html=1;exitX=1;exitY=0.5;exitDx=0;exitDy=0;exitPerimeter=0;entryX=0;entryY=0.5;entryDx=0;entryDy=0;entryPerimeter=0;" edge="1" parent="1" source="Osbx_EENR6xcQlzmfpFu-74" target="Osbx_EENR6xcQlzmfpFu-96">
          <mxGeometry relative="1" as="geometry" />
        </mxCell>
        <mxCell id="Osbx_EENR6xcQlzmfpFu-98" value="&lt;span style=&quot;font-size: 11px; text-wrap: nowrap;&quot;&gt;查看&lt;/span&gt;&lt;span style=&quot;font-size: 11px; text-wrap: nowrap;&quot;&gt;账单数据分析&lt;/span&gt;" style="strokeWidth=2;html=1;shape=mxgraph.flowchart.start_1;whiteSpace=wrap;fontStyle=1" vertex="1" parent="1">
          <mxGeometry x="141" y="1962" width="100" height="60" as="geometry" />
        </mxCell>
        <mxCell id="Osbx_EENR6xcQlzmfpFu-100" style="edgeStyle=none;rounded=0;orthogonalLoop=1;jettySize=auto;html=1;exitX=0.5;exitY=0.5;exitDx=0;exitDy=0;exitPerimeter=0;" edge="1" parent="1" source="Osbx_EENR6xcQlzmfpFu-99" target="Osbx_EENR6xcQlzmfpFu-98">
          <mxGeometry relative="1" as="geometry" />
        </mxCell>
        <mxCell id="Osbx_EENR6xcQlzmfpFu-99" value="用户" style="shape=umlActor;verticalLabelPosition=bottom;verticalAlign=top;html=1;outlineConnect=0;fontStyle=1" vertex="1" parent="1">
          <mxGeometry x="6" y="1962" width="30" height="60" as="geometry" />
        </mxCell>
        <mxCell id="Osbx_EENR6xcQlzmfpFu-101" value="&lt;b&gt;登录&lt;/b&gt;" style="text;html=1;align=center;verticalAlign=middle;resizable=0;points=[];autosize=1;strokeColor=none;fillColor=none;" vertex="1" parent="1">
          <mxGeometry x="-172" y="1128" width="42" height="26" as="geometry" />
        </mxCell>
        <mxCell id="Osbx_EENR6xcQlzmfpFu-102" value="录入账单" style="text;strokeColor=none;align=center;fillColor=none;html=1;verticalAlign=middle;whiteSpace=wrap;rounded=0;fontStyle=1" vertex="1" parent="1">
          <mxGeometry x="-149.99662597656248" y="1251.9966259765624" width="60" height="30" as="geometry" />
        </mxCell>
        <mxCell id="Osbx_EENR6xcQlzmfpFu-103" value="信息维护" style="text;strokeColor=none;align=center;fillColor=none;html=1;verticalAlign=middle;whiteSpace=wrap;rounded=0;fontStyle=1" vertex="1" parent="1">
          <mxGeometry x="-172" y="1445" width="86" height="39" as="geometry" />
        </mxCell>
        <mxCell id="Osbx_EENR6xcQlzmfpFu-105" value="&lt;span style=&quot;text-wrap: nowrap; font-size: 11px;&quot;&gt;历史账单&lt;/span&gt;&lt;span style=&quot;text-wrap: nowrap; font-size: 11px;&quot;&gt;查看&lt;/span&gt;" style="text;strokeColor=none;align=center;fillColor=none;html=1;verticalAlign=middle;whiteSpace=wrap;rounded=0;fontStyle=1" vertex="1" parent="1">
          <mxGeometry x="-159" y="1769" width="86" height="39" as="geometry" />
        </mxCell>
        <mxCell id="Osbx_EENR6xcQlzmfpFu-106" value="账单数据分析" style="text;strokeColor=none;align=center;fillColor=none;html=1;verticalAlign=middle;whiteSpace=wrap;rounded=0;fontStyle=1" vertex="1" parent="1">
          <mxGeometry x="-166" y="1972.5" width="86" height="39" as="geometry" />
        </mxCell>
      </root>
    </mxGraphModel>
  </diagram>
  <diagram id="pocKUUlwkIkIMbViMzlE" name="系统功能关系图">
    <mxGraphModel dx="1221" dy="618" grid="0" gridSize="10" guides="1" tooltips="1" connect="1" arrows="1" fold="1" page="0" pageScale="1" pageWidth="827" pageHeight="1169" math="0" shadow="0">
      <root>
        <mxCell id="0" />
        <mxCell id="1" parent="0" />
        <mxCell id="vAXbhLXocgyoxHzrr7ku-4" style="edgeStyle=orthogonalEdgeStyle;rounded=0;orthogonalLoop=1;jettySize=auto;html=1;exitX=0.5;exitY=1;exitDx=0;exitDy=0;entryX=0.5;entryY=0;entryDx=0;entryDy=0;fontStyle=1" edge="1" parent="1" source="y-aoPman6iiXDA5wEXyq-1" target="y-aoPman6iiXDA5wEXyq-5">
          <mxGeometry relative="1" as="geometry" />
        </mxCell>
        <mxCell id="vAXbhLXocgyoxHzrr7ku-5" style="edgeStyle=orthogonalEdgeStyle;rounded=0;orthogonalLoop=1;jettySize=auto;html=1;exitX=0.5;exitY=1;exitDx=0;exitDy=0;fontStyle=1" edge="1" parent="1" source="y-aoPman6iiXDA5wEXyq-1" target="y-aoPman6iiXDA5wEXyq-4">
          <mxGeometry relative="1" as="geometry" />
        </mxCell>
        <mxCell id="vAXbhLXocgyoxHzrr7ku-6" style="edgeStyle=orthogonalEdgeStyle;rounded=0;orthogonalLoop=1;jettySize=auto;html=1;exitX=0.5;exitY=1;exitDx=0;exitDy=0;fontStyle=1" edge="1" parent="1" source="y-aoPman6iiXDA5wEXyq-1" target="y-aoPman6iiXDA5wEXyq-2">
          <mxGeometry relative="1" as="geometry" />
        </mxCell>
        <mxCell id="vAXbhLXocgyoxHzrr7ku-7" style="edgeStyle=orthogonalEdgeStyle;rounded=0;orthogonalLoop=1;jettySize=auto;html=1;exitX=0.5;exitY=1;exitDx=0;exitDy=0;fontStyle=1" edge="1" parent="1" source="y-aoPman6iiXDA5wEXyq-1" target="y-aoPman6iiXDA5wEXyq-3">
          <mxGeometry relative="1" as="geometry" />
        </mxCell>
        <mxCell id="vAXbhLXocgyoxHzrr7ku-8" style="edgeStyle=orthogonalEdgeStyle;rounded=0;orthogonalLoop=1;jettySize=auto;html=1;exitX=0.5;exitY=1;exitDx=0;exitDy=0;fontStyle=1" edge="1" parent="1" source="y-aoPman6iiXDA5wEXyq-1" target="y-aoPman6iiXDA5wEXyq-6">
          <mxGeometry relative="1" as="geometry" />
        </mxCell>
        <mxCell id="y-aoPman6iiXDA5wEXyq-1" value="AI 个人记账系统" style="whiteSpace=wrap;strokeWidth=2;fontStyle=1" vertex="1" parent="1">
          <mxGeometry x="110" y="3" width="165" height="32" as="geometry" />
        </mxCell>
        <mxCell id="y-aoPman6iiXDA5wEXyq-2" value="用户模块" style="whiteSpace=wrap;strokeWidth=2;fontStyle=1" vertex="1" parent="1">
          <mxGeometry x="181.5" y="125.5" width="22" height="130.5" as="geometry" />
        </mxCell>
        <mxCell id="y-aoPman6iiXDA5wEXyq-3" value="信息维护模块" style="whiteSpace=wrap;strokeWidth=2;fontStyle=1" vertex="1" parent="1">
          <mxGeometry x="129" y="125.5" width="23" height="129.5" as="geometry" />
        </mxCell>
        <mxCell id="y-aoPman6iiXDA5wEXyq-4" value="账单管理模块" style="whiteSpace=wrap;strokeWidth=2;fontStyle=1" vertex="1" parent="1">
          <mxGeometry x="231" y="125.5" width="23" height="128.5" as="geometry" />
        </mxCell>
        <mxCell id="y-aoPman6iiXDA5wEXyq-5" value="AI交互模块" style="whiteSpace=wrap;strokeWidth=2;fontStyle=1" vertex="1" parent="1">
          <mxGeometry x="281" y="125.5" width="24" height="128" as="geometry" />
        </mxCell>
        <mxCell id="y-aoPman6iiXDA5wEXyq-6" value="账单数据分析模块" style="whiteSpace=wrap;strokeWidth=2;fontStyle=1" vertex="1" parent="1">
          <mxGeometry x="82" y="125.5" width="23" height="130.5" as="geometry" />
        </mxCell>
      </root>
    </mxGraphModel>
  </diagram>
  <diagram id="uagw4wg0bRN7pcdFFFYJ" name="流程图">
    <mxGraphModel dx="1621" dy="1018" grid="0" gridSize="10" guides="1" tooltips="1" connect="1" arrows="1" fold="1" page="0" pageScale="1" pageWidth="827" pageHeight="1169" math="0" shadow="0">
      <root>
        <mxCell id="0" />
        <mxCell id="1" parent="0" />
        <mxCell id="5xG1RXUnwL2E0h_gpWQM-16" value="用户访问系统" style="whiteSpace=wrap;strokeWidth=2;fontStyle=1" vertex="1" parent="1">
          <mxGeometry x="-15" y="-75" width="111" height="34" as="geometry" />
        </mxCell>
        <mxCell id="5xG1RXUnwL2E0h_gpWQM-17" value="用户注册" style="whiteSpace=wrap;strokeWidth=2;fontStyle=1" vertex="1" parent="1">
          <mxGeometry x="146" y="-75" width="79" height="34" as="geometry" />
        </mxCell>
        <mxCell id="5xG1RXUnwL2E0h_gpWQM-18" value="是否已有账户?" style="rhombus;strokeWidth=2;whiteSpace=wrap;fontStyle=1" vertex="1" parent="1">
          <mxGeometry x="275" y="-134" width="151" height="151" as="geometry" />
        </mxCell>
        <mxCell id="5xG1RXUnwL2E0h_gpWQM-19" value="用户登录" style="whiteSpace=wrap;strokeWidth=2;fontStyle=1" vertex="1" parent="1">
          <mxGeometry x="662" y="-117" width="79" height="34" as="geometry" />
        </mxCell>
        <mxCell id="5xG1RXUnwL2E0h_gpWQM-20" value="填写注册信息" style="whiteSpace=wrap;strokeWidth=2;fontStyle=1" vertex="1" parent="1">
          <mxGeometry x="492" y="-33" width="112" height="34" as="geometry" />
        </mxCell>
        <mxCell id="5xG1RXUnwL2E0h_gpWQM-21" value="创建新用户" style="whiteSpace=wrap;strokeWidth=2;fontStyle=1" vertex="1" parent="1">
          <mxGeometry x="654" y="-33" width="95" height="34" as="geometry" />
        </mxCell>
        <mxCell id="5xG1RXUnwL2E0h_gpWQM-22" value="访问系统功能" style="whiteSpace=wrap;strokeWidth=2;fontStyle=1" vertex="1" parent="1">
          <mxGeometry x="799" y="-75" width="111" height="34" as="geometry" />
        </mxCell>
        <mxCell id="5xG1RXUnwL2E0h_gpWQM-23" value="" style="curved=1;startArrow=none;endArrow=block;exitX=1;exitY=0.49;entryX=0;entryY=0.49;rounded=0;fontStyle=1" edge="1" parent="1" source="5xG1RXUnwL2E0h_gpWQM-16" target="5xG1RXUnwL2E0h_gpWQM-17">
          <mxGeometry relative="1" as="geometry">
            <Array as="points" />
          </mxGeometry>
        </mxCell>
        <mxCell id="5xG1RXUnwL2E0h_gpWQM-24" value="" style="curved=1;startArrow=none;endArrow=block;exitX=1;exitY=0.49;entryX=0;entryY=0.5;rounded=0;fontStyle=1" edge="1" parent="1" source="5xG1RXUnwL2E0h_gpWQM-17" target="5xG1RXUnwL2E0h_gpWQM-18">
          <mxGeometry relative="1" as="geometry">
            <Array as="points" />
          </mxGeometry>
        </mxCell>
        <mxCell id="5xG1RXUnwL2E0h_gpWQM-25" value="是" style="curved=1;startArrow=none;endArrow=block;exitX=1;exitY=0.31;entryX=0;entryY=0.5;rounded=0;fontStyle=1" edge="1" parent="1" source="5xG1RXUnwL2E0h_gpWQM-18" target="5xG1RXUnwL2E0h_gpWQM-19">
          <mxGeometry relative="1" as="geometry">
            <Array as="points">
              <mxPoint x="459" y="-100" />
            </Array>
          </mxGeometry>
        </mxCell>
        <mxCell id="5xG1RXUnwL2E0h_gpWQM-26" value="否" style="curved=1;startArrow=none;endArrow=block;exitX=1;exitY=0.69;entryX=0;entryY=0.49;rounded=0;fontStyle=1" edge="1" parent="1" source="5xG1RXUnwL2E0h_gpWQM-18" target="5xG1RXUnwL2E0h_gpWQM-20">
          <mxGeometry relative="1" as="geometry">
            <Array as="points">
              <mxPoint x="459" y="-16" />
            </Array>
          </mxGeometry>
        </mxCell>
        <mxCell id="5xG1RXUnwL2E0h_gpWQM-27" value="" style="curved=1;startArrow=none;endArrow=block;exitX=1;exitY=0.49;entryX=0;entryY=0.49;rounded=0;fontStyle=1" edge="1" parent="1" source="5xG1RXUnwL2E0h_gpWQM-20" target="5xG1RXUnwL2E0h_gpWQM-21">
          <mxGeometry relative="1" as="geometry">
            <Array as="points" />
          </mxGeometry>
        </mxCell>
        <mxCell id="5xG1RXUnwL2E0h_gpWQM-28" value="" style="curved=1;startArrow=none;endArrow=block;exitX=1;exitY=0.5;entryX=0.21;entryY=0;rounded=0;fontStyle=1" edge="1" parent="1" source="5xG1RXUnwL2E0h_gpWQM-19" target="5xG1RXUnwL2E0h_gpWQM-22">
          <mxGeometry relative="1" as="geometry">
            <Array as="points">
              <mxPoint x="774" y="-100" />
            </Array>
          </mxGeometry>
        </mxCell>
        <mxCell id="5xG1RXUnwL2E0h_gpWQM-29" value="" style="curved=1;startArrow=none;endArrow=block;exitX=1;exitY=0.49;entryX=0.21;entryY=0.99;rounded=0;fontStyle=1" edge="1" parent="1" source="5xG1RXUnwL2E0h_gpWQM-21" target="5xG1RXUnwL2E0h_gpWQM-22">
          <mxGeometry relative="1" as="geometry">
            <Array as="points">
              <mxPoint x="774" y="-16" />
            </Array>
          </mxGeometry>
        </mxCell>
        <mxCell id="5xG1RXUnwL2E0h_gpWQM-30" value="用户模块" style="text;whiteSpace=wrap;html=1;fontStyle=1" vertex="1" parent="1">
          <mxGeometry x="296" y="-212" width="76" height="23.67" as="geometry" />
        </mxCell>
        <mxCell id="5xG1RXUnwL2E0h_gpWQM-31" value="用户选择账单" style="whiteSpace=wrap;strokeWidth=2;fontStyle=1" vertex="1" parent="1">
          <mxGeometry x="-20" y="213" width="111" height="34" as="geometry" />
        </mxCell>
        <mxCell id="5xG1RXUnwL2E0h_gpWQM-32" value="修改账单信息" style="whiteSpace=wrap;strokeWidth=2;fontStyle=1" vertex="1" parent="1">
          <mxGeometry x="141" y="213" width="112" height="34" as="geometry" />
        </mxCell>
        <mxCell id="5xG1RXUnwL2E0h_gpWQM-33" value="选择修改字段" style="whiteSpace=wrap;strokeWidth=2;fontStyle=1" vertex="1" parent="1">
          <mxGeometry x="303" y="213" width="112" height="34" as="geometry" />
        </mxCell>
        <mxCell id="5xG1RXUnwL2E0h_gpWQM-34" value="修改类别" style="whiteSpace=wrap;strokeWidth=2;fontStyle=1" vertex="1" parent="1">
          <mxGeometry x="480" y="129" width="79" height="34" as="geometry" />
        </mxCell>
        <mxCell id="5xG1RXUnwL2E0h_gpWQM-35" value="修改付款对象" style="whiteSpace=wrap;strokeWidth=2;fontStyle=1" vertex="1" parent="1">
          <mxGeometry x="464" y="213" width="111" height="34" as="geometry" />
        </mxCell>
        <mxCell id="5xG1RXUnwL2E0h_gpWQM-36" value="修改备注" style="whiteSpace=wrap;strokeWidth=2;fontStyle=1" vertex="1" parent="1">
          <mxGeometry x="480" y="296" width="79" height="34" as="geometry" />
        </mxCell>
        <mxCell id="5xG1RXUnwL2E0h_gpWQM-37" value="保存修改" style="whiteSpace=wrap;strokeWidth=2;fontStyle=1" vertex="1" parent="1">
          <mxGeometry x="625" y="213" width="80" height="34" as="geometry" />
        </mxCell>
        <mxCell id="5xG1RXUnwL2E0h_gpWQM-38" value="信息维护完成" style="whiteSpace=wrap;strokeWidth=2;fontStyle=1" vertex="1" parent="1">
          <mxGeometry x="755" y="213" width="112" height="34" as="geometry" />
        </mxCell>
        <mxCell id="5xG1RXUnwL2E0h_gpWQM-39" value="" style="curved=1;startArrow=none;endArrow=block;exitX=1;exitY=0.49;entryX=0;entryY=0.49;rounded=0;fontStyle=1" edge="1" parent="1" source="5xG1RXUnwL2E0h_gpWQM-31" target="5xG1RXUnwL2E0h_gpWQM-32">
          <mxGeometry relative="1" as="geometry">
            <Array as="points" />
          </mxGeometry>
        </mxCell>
        <mxCell id="5xG1RXUnwL2E0h_gpWQM-40" value="" style="curved=1;startArrow=none;endArrow=block;exitX=1;exitY=0.49;entryX=0;entryY=0.49;rounded=0;fontStyle=1" edge="1" parent="1" source="5xG1RXUnwL2E0h_gpWQM-32" target="5xG1RXUnwL2E0h_gpWQM-33">
          <mxGeometry relative="1" as="geometry">
            <Array as="points" />
          </mxGeometry>
        </mxCell>
        <mxCell id="5xG1RXUnwL2E0h_gpWQM-41" value="" style="curved=1;startArrow=none;endArrow=block;exitX=0.64;exitY=-0.01;entryX=0;entryY=0.5;rounded=0;fontStyle=1" edge="1" parent="1" source="5xG1RXUnwL2E0h_gpWQM-33" target="5xG1RXUnwL2E0h_gpWQM-34">
          <mxGeometry relative="1" as="geometry">
            <Array as="points">
              <mxPoint x="439" y="146" />
            </Array>
          </mxGeometry>
        </mxCell>
        <mxCell id="5xG1RXUnwL2E0h_gpWQM-42" value="" style="curved=1;startArrow=none;endArrow=block;exitX=0.99;exitY=0.49;entryX=0;entryY=0.49;rounded=0;fontStyle=1" edge="1" parent="1" source="5xG1RXUnwL2E0h_gpWQM-33" target="5xG1RXUnwL2E0h_gpWQM-35">
          <mxGeometry relative="1" as="geometry">
            <Array as="points" />
          </mxGeometry>
        </mxCell>
        <mxCell id="5xG1RXUnwL2E0h_gpWQM-43" value="" style="curved=1;startArrow=none;endArrow=block;exitX=0.64;exitY=0.98;entryX=0;entryY=0.5;rounded=0;fontStyle=1" edge="1" parent="1" source="5xG1RXUnwL2E0h_gpWQM-33" target="5xG1RXUnwL2E0h_gpWQM-36">
          <mxGeometry relative="1" as="geometry">
            <Array as="points">
              <mxPoint x="439" y="313" />
            </Array>
          </mxGeometry>
        </mxCell>
        <mxCell id="5xG1RXUnwL2E0h_gpWQM-44" value="" style="curved=1;startArrow=none;endArrow=block;exitX=1;exitY=0.5;entryX=0.34;entryY=-0.01;rounded=0;fontStyle=1" edge="1" parent="1" source="5xG1RXUnwL2E0h_gpWQM-34" target="5xG1RXUnwL2E0h_gpWQM-37">
          <mxGeometry relative="1" as="geometry">
            <Array as="points">
              <mxPoint x="600" y="146" />
            </Array>
          </mxGeometry>
        </mxCell>
        <mxCell id="5xG1RXUnwL2E0h_gpWQM-45" value="" style="curved=1;startArrow=none;endArrow=block;exitX=1;exitY=0.49;entryX=0;entryY=0.49;rounded=0;fontStyle=1" edge="1" parent="1" source="5xG1RXUnwL2E0h_gpWQM-35" target="5xG1RXUnwL2E0h_gpWQM-37">
          <mxGeometry relative="1" as="geometry">
            <Array as="points" />
          </mxGeometry>
        </mxCell>
        <mxCell id="5xG1RXUnwL2E0h_gpWQM-46" value="" style="curved=1;startArrow=none;endArrow=block;exitX=1;exitY=0.5;entryX=0.34;entryY=0.98;rounded=0;fontStyle=1" edge="1" parent="1" source="5xG1RXUnwL2E0h_gpWQM-36" target="5xG1RXUnwL2E0h_gpWQM-37">
          <mxGeometry relative="1" as="geometry">
            <Array as="points">
              <mxPoint x="600" y="313" />
            </Array>
          </mxGeometry>
        </mxCell>
        <mxCell id="5xG1RXUnwL2E0h_gpWQM-47" value="" style="curved=1;startArrow=none;endArrow=block;exitX=1;exitY=0.49;entryX=0;entryY=0.49;rounded=0;fontStyle=1" edge="1" parent="1" source="5xG1RXUnwL2E0h_gpWQM-37" target="5xG1RXUnwL2E0h_gpWQM-38">
          <mxGeometry relative="1" as="geometry">
            <Array as="points" />
          </mxGeometry>
        </mxCell>
        <mxCell id="5xG1RXUnwL2E0h_gpWQM-48" value="信息维护模块" style="text;html=1;align=center;verticalAlign=middle;resizable=0;points=[];autosize=1;strokeColor=none;fillColor=none;fontStyle=1" vertex="1" parent="1">
          <mxGeometry x="275" y="95" width="90" height="26" as="geometry" />
        </mxCell>
        <mxCell id="5xG1RXUnwL2E0h_gpWQM-49" value="用户进入账单模块" style="whiteSpace=wrap;strokeWidth=2;fontStyle=1" vertex="1" parent="1">
          <mxGeometry x="-36" y="421" width="143" height="34" as="geometry" />
        </mxCell>
        <mxCell id="5xG1RXUnwL2E0h_gpWQM-50" value="选择录入方式" style="whiteSpace=wrap;strokeWidth=2;fontStyle=1" vertex="1" parent="1">
          <mxGeometry x="197" y="421" width="111" height="34" as="geometry" />
        </mxCell>
        <mxCell id="5xG1RXUnwL2E0h_gpWQM-51" value="手动录入" style="whiteSpace=wrap;strokeWidth=2;fontStyle=1" vertex="1" parent="1">
          <mxGeometry x="374" y="379" width="79" height="34" as="geometry" />
        </mxCell>
        <mxCell id="5xG1RXUnwL2E0h_gpWQM-52" value="自然语言录入" style="whiteSpace=wrap;strokeWidth=2;fontStyle=1" vertex="1" parent="1">
          <mxGeometry x="358" y="463" width="111" height="34" as="geometry" />
        </mxCell>
        <mxCell id="5xG1RXUnwL2E0h_gpWQM-53" value="填写账单信息" style="whiteSpace=wrap;strokeWidth=2;fontStyle=1" vertex="1" parent="1">
          <mxGeometry x="519" y="379" width="112" height="34" as="geometry" />
        </mxCell>
        <mxCell id="5xG1RXUnwL2E0h_gpWQM-54" value="解析自然语言" style="whiteSpace=wrap;strokeWidth=2;fontStyle=1" vertex="1" parent="1">
          <mxGeometry x="519" y="463" width="111" height="34" as="geometry" />
        </mxCell>
        <mxCell id="5xG1RXUnwL2E0h_gpWQM-55" value="保存账单" style="whiteSpace=wrap;strokeWidth=2;fontStyle=1" vertex="1" parent="1">
          <mxGeometry x="681" y="421" width="79" height="34" as="geometry" />
        </mxCell>
        <mxCell id="5xG1RXUnwL2E0h_gpWQM-56" value="账单录入完成" style="whiteSpace=wrap;strokeWidth=2;fontStyle=1" vertex="1" parent="1">
          <mxGeometry x="810" y="421" width="112" height="34" as="geometry" />
        </mxCell>
        <mxCell id="5xG1RXUnwL2E0h_gpWQM-57" value="" style="curved=1;startArrow=none;endArrow=block;exitX=1;exitY=0.49;entryX=0;entryY=0.49;rounded=0;fontStyle=1" edge="1" parent="1" source="5xG1RXUnwL2E0h_gpWQM-49" target="5xG1RXUnwL2E0h_gpWQM-50">
          <mxGeometry relative="1" as="geometry">
            <Array as="points" />
          </mxGeometry>
        </mxCell>
        <mxCell id="5xG1RXUnwL2E0h_gpWQM-58" value="" style="curved=1;startArrow=none;endArrow=block;exitX=0.79;exitY=0;entryX=0;entryY=0.5;rounded=0;fontStyle=1" edge="1" parent="1" source="5xG1RXUnwL2E0h_gpWQM-50" target="5xG1RXUnwL2E0h_gpWQM-51">
          <mxGeometry relative="1" as="geometry">
            <Array as="points">
              <mxPoint x="333" y="396" />
            </Array>
          </mxGeometry>
        </mxCell>
        <mxCell id="5xG1RXUnwL2E0h_gpWQM-59" value="" style="curved=1;startArrow=none;endArrow=block;exitX=0.79;exitY=0.99;entryX=0;entryY=0.49;rounded=0;fontStyle=1" edge="1" parent="1" source="5xG1RXUnwL2E0h_gpWQM-50" target="5xG1RXUnwL2E0h_gpWQM-52">
          <mxGeometry relative="1" as="geometry">
            <Array as="points">
              <mxPoint x="333" y="480" />
            </Array>
          </mxGeometry>
        </mxCell>
        <mxCell id="5xG1RXUnwL2E0h_gpWQM-60" value="" style="curved=1;startArrow=none;endArrow=block;exitX=1;exitY=0.5;entryX=0;entryY=0.5;rounded=0;fontStyle=1" edge="1" parent="1" source="5xG1RXUnwL2E0h_gpWQM-51" target="5xG1RXUnwL2E0h_gpWQM-53">
          <mxGeometry relative="1" as="geometry">
            <Array as="points" />
          </mxGeometry>
        </mxCell>
        <mxCell id="5xG1RXUnwL2E0h_gpWQM-61" value="" style="curved=1;startArrow=none;endArrow=block;exitX=1;exitY=0.49;entryX=0;entryY=0.49;rounded=0;fontStyle=1" edge="1" parent="1" source="5xG1RXUnwL2E0h_gpWQM-52" target="5xG1RXUnwL2E0h_gpWQM-54">
          <mxGeometry relative="1" as="geometry">
            <Array as="points" />
          </mxGeometry>
        </mxCell>
        <mxCell id="5xG1RXUnwL2E0h_gpWQM-62" value="" style="curved=1;startArrow=none;endArrow=block;exitX=1;exitY=0.5;entryX=0.17;entryY=0;rounded=0;fontStyle=1" edge="1" parent="1" source="5xG1RXUnwL2E0h_gpWQM-53" target="5xG1RXUnwL2E0h_gpWQM-55">
          <mxGeometry relative="1" as="geometry">
            <Array as="points">
              <mxPoint x="656" y="396" />
            </Array>
          </mxGeometry>
        </mxCell>
        <mxCell id="5xG1RXUnwL2E0h_gpWQM-63" value="" style="curved=1;startArrow=none;endArrow=block;exitX=1;exitY=0.49;entryX=0.17;entryY=0.99;rounded=0;fontStyle=1" edge="1" parent="1" source="5xG1RXUnwL2E0h_gpWQM-54" target="5xG1RXUnwL2E0h_gpWQM-55">
          <mxGeometry relative="1" as="geometry">
            <Array as="points">
              <mxPoint x="656" y="480" />
            </Array>
          </mxGeometry>
        </mxCell>
        <mxCell id="5xG1RXUnwL2E0h_gpWQM-64" value="" style="curved=1;startArrow=none;endArrow=block;exitX=1;exitY=0.49;entryX=0;entryY=0.49;rounded=0;fontStyle=1" edge="1" parent="1" source="5xG1RXUnwL2E0h_gpWQM-55" target="5xG1RXUnwL2E0h_gpWQM-56">
          <mxGeometry relative="1" as="geometry">
            <Array as="points" />
          </mxGeometry>
        </mxCell>
        <mxCell id="5xG1RXUnwL2E0h_gpWQM-65" value="&lt;b&gt;账单管理模块&lt;/b&gt;" style="text;html=1;align=center;verticalAlign=middle;resizable=0;points=[];autosize=1;strokeColor=none;fillColor=none;" vertex="1" parent="1">
          <mxGeometry x="173" y="356" width="90" height="26" as="geometry" />
        </mxCell>
        <mxCell id="5xG1RXUnwL2E0h_gpWQM-66" value="用户输入自然语言" style="whiteSpace=wrap;strokeWidth=2;fontStyle=1" vertex="1" parent="1">
          <mxGeometry x="11" y="631" width="143" height="34" as="geometry" />
        </mxCell>
        <mxCell id="5xG1RXUnwL2E0h_gpWQM-67" value="AI模块接收输入" style="whiteSpace=wrap;strokeWidth=2;fontStyle=1" vertex="1" parent="1">
          <mxGeometry x="204" y="631" width="126" height="34" as="geometry" />
        </mxCell>
        <mxCell id="5xG1RXUnwL2E0h_gpWQM-68" value="调用GPT API" style="whiteSpace=wrap;strokeWidth=2;fontStyle=1" vertex="1" parent="1">
          <mxGeometry x="380" y="631" width="103" height="34" as="geometry" />
        </mxCell>
        <mxCell id="5xG1RXUnwL2E0h_gpWQM-69" value="解析自然语言" style="whiteSpace=wrap;strokeWidth=2;fontStyle=1" vertex="1" parent="1">
          <mxGeometry x="532" y="631" width="111" height="34" as="geometry" />
        </mxCell>
        <mxCell id="5xG1RXUnwL2E0h_gpWQM-70" value="转化为结构化数据" style="whiteSpace=wrap;strokeWidth=2;fontStyle=1" vertex="1" parent="1">
          <mxGeometry x="693" y="631" width="143" height="34" as="geometry" />
        </mxCell>
        <mxCell id="5xG1RXUnwL2E0h_gpWQM-71" value="返回账单模块" style="whiteSpace=wrap;strokeWidth=2;fontStyle=1" vertex="1" parent="1">
          <mxGeometry x="886" y="631" width="111" height="34" as="geometry" />
        </mxCell>
        <mxCell id="5xG1RXUnwL2E0h_gpWQM-72" value="保存数据" style="whiteSpace=wrap;strokeWidth=2;fontStyle=1" vertex="1" parent="1">
          <mxGeometry x="1047" y="631" width="79" height="34" as="geometry" />
        </mxCell>
        <mxCell id="5xG1RXUnwL2E0h_gpWQM-73" value="" style="curved=1;startArrow=none;endArrow=block;exitX=1;exitY=0.5;entryX=0;entryY=0.5;rounded=0;fontStyle=1" edge="1" parent="1" source="5xG1RXUnwL2E0h_gpWQM-66" target="5xG1RXUnwL2E0h_gpWQM-67">
          <mxGeometry relative="1" as="geometry">
            <Array as="points" />
          </mxGeometry>
        </mxCell>
        <mxCell id="5xG1RXUnwL2E0h_gpWQM-74" value="" style="curved=1;startArrow=none;endArrow=block;exitX=1;exitY=0.5;entryX=0;entryY=0.5;rounded=0;fontStyle=1" edge="1" parent="1" source="5xG1RXUnwL2E0h_gpWQM-67" target="5xG1RXUnwL2E0h_gpWQM-68">
          <mxGeometry relative="1" as="geometry">
            <Array as="points" />
          </mxGeometry>
        </mxCell>
        <mxCell id="5xG1RXUnwL2E0h_gpWQM-75" value="" style="curved=1;startArrow=none;endArrow=block;exitX=0.99;exitY=0.5;entryX=0;entryY=0.5;rounded=0;fontStyle=1" edge="1" parent="1" source="5xG1RXUnwL2E0h_gpWQM-68" target="5xG1RXUnwL2E0h_gpWQM-69">
          <mxGeometry relative="1" as="geometry">
            <Array as="points" />
          </mxGeometry>
        </mxCell>
        <mxCell id="5xG1RXUnwL2E0h_gpWQM-76" value="" style="curved=1;startArrow=none;endArrow=block;exitX=1;exitY=0.5;entryX=0;entryY=0.5;rounded=0;fontStyle=1" edge="1" parent="1" source="5xG1RXUnwL2E0h_gpWQM-69" target="5xG1RXUnwL2E0h_gpWQM-70">
          <mxGeometry relative="1" as="geometry">
            <Array as="points" />
          </mxGeometry>
        </mxCell>
        <mxCell id="5xG1RXUnwL2E0h_gpWQM-77" value="" style="curved=1;startArrow=none;endArrow=block;exitX=1;exitY=0.5;entryX=0;entryY=0.5;rounded=0;fontStyle=1" edge="1" parent="1" source="5xG1RXUnwL2E0h_gpWQM-70" target="5xG1RXUnwL2E0h_gpWQM-71">
          <mxGeometry relative="1" as="geometry">
            <Array as="points" />
          </mxGeometry>
        </mxCell>
        <mxCell id="5xG1RXUnwL2E0h_gpWQM-78" value="" style="curved=1;startArrow=none;endArrow=block;exitX=1;exitY=0.5;entryX=0;entryY=0.5;rounded=0;fontStyle=1" edge="1" parent="1" source="5xG1RXUnwL2E0h_gpWQM-71" target="5xG1RXUnwL2E0h_gpWQM-72">
          <mxGeometry relative="1" as="geometry">
            <Array as="points" />
          </mxGeometry>
        </mxCell>
        <mxCell id="5xG1RXUnwL2E0h_gpWQM-79" value="AI交互模块" style="text;html=1;align=center;verticalAlign=middle;resizable=0;points=[];autosize=1;strokeColor=none;fillColor=none;fontStyle=1" vertex="1" parent="1">
          <mxGeometry x="405" y="560" width="77" height="26" as="geometry" />
        </mxCell>
        <mxCell id="5xG1RXUnwL2E0h_gpWQM-80" value="用户进入数据分析模块" style="whiteSpace=wrap;strokeWidth=2;fontStyle=1" vertex="1" parent="1">
          <mxGeometry x="29" y="876" width="175" height="34" as="geometry" />
        </mxCell>
        <mxCell id="5xG1RXUnwL2E0h_gpWQM-81" value="选择分析维度" style="whiteSpace=wrap;strokeWidth=2;fontStyle=1" vertex="1" parent="1">
          <mxGeometry x="254" y="876" width="111" height="34" as="geometry" />
        </mxCell>
        <mxCell id="5xG1RXUnwL2E0h_gpWQM-82" value="按时间分析" style="whiteSpace=wrap;strokeWidth=2;fontStyle=1" vertex="1" parent="1">
          <mxGeometry x="415" y="834" width="95" height="34" as="geometry" />
        </mxCell>
        <mxCell id="5xG1RXUnwL2E0h_gpWQM-83" value="按类别分析" style="whiteSpace=wrap;strokeWidth=2;fontStyle=1" vertex="1" parent="1">
          <mxGeometry x="415" y="918" width="95" height="34" as="geometry" />
        </mxCell>
        <mxCell id="5xG1RXUnwL2E0h_gpWQM-84" value="生成折线图" style="whiteSpace=wrap;strokeWidth=2;fontStyle=1" vertex="1" parent="1">
          <mxGeometry x="560" y="834" width="95" height="34" as="geometry" />
        </mxCell>
        <mxCell id="5xG1RXUnwL2E0h_gpWQM-85" value="生成饼图" style="whiteSpace=wrap;strokeWidth=2;fontStyle=1" vertex="1" parent="1">
          <mxGeometry x="568" y="918" width="79" height="34" as="geometry" />
        </mxCell>
        <mxCell id="5xG1RXUnwL2E0h_gpWQM-86" value="显示消费趋势" style="whiteSpace=wrap;strokeWidth=2;fontStyle=1" vertex="1" parent="1">
          <mxGeometry x="705" y="876" width="111" height="34" as="geometry" />
        </mxCell>
        <mxCell id="5xG1RXUnwL2E0h_gpWQM-87" value="用户查看数据分析结果" style="whiteSpace=wrap;strokeWidth=2;fontStyle=1" vertex="1" parent="1">
          <mxGeometry x="866" y="876" width="176" height="34" as="geometry" />
        </mxCell>
        <mxCell id="5xG1RXUnwL2E0h_gpWQM-88" value="" style="curved=1;startArrow=none;endArrow=block;exitX=1;exitY=0.49;entryX=0;entryY=0.49;rounded=0;fontStyle=1" edge="1" parent="1" source="5xG1RXUnwL2E0h_gpWQM-80" target="5xG1RXUnwL2E0h_gpWQM-81">
          <mxGeometry relative="1" as="geometry">
            <Array as="points" />
          </mxGeometry>
        </mxCell>
        <mxCell id="5xG1RXUnwL2E0h_gpWQM-89" value="" style="curved=1;startArrow=none;endArrow=block;exitX=0.79;exitY=0;entryX=0;entryY=0.5;rounded=0;fontStyle=1" edge="1" parent="1" source="5xG1RXUnwL2E0h_gpWQM-81" target="5xG1RXUnwL2E0h_gpWQM-82">
          <mxGeometry relative="1" as="geometry">
            <Array as="points">
              <mxPoint x="390" y="851" />
            </Array>
          </mxGeometry>
        </mxCell>
        <mxCell id="5xG1RXUnwL2E0h_gpWQM-90" value="" style="curved=1;startArrow=none;endArrow=block;exitX=0.79;exitY=0.99;entryX=0;entryY=0.49;rounded=0;fontStyle=1" edge="1" parent="1" source="5xG1RXUnwL2E0h_gpWQM-81" target="5xG1RXUnwL2E0h_gpWQM-83">
          <mxGeometry relative="1" as="geometry">
            <Array as="points">
              <mxPoint x="390" y="935" />
            </Array>
          </mxGeometry>
        </mxCell>
        <mxCell id="5xG1RXUnwL2E0h_gpWQM-91" value="" style="curved=1;startArrow=none;endArrow=block;exitX=1;exitY=0.5;entryX=0;entryY=0.5;rounded=0;fontStyle=1" edge="1" parent="1" source="5xG1RXUnwL2E0h_gpWQM-82" target="5xG1RXUnwL2E0h_gpWQM-84">
          <mxGeometry relative="1" as="geometry">
            <Array as="points" />
          </mxGeometry>
        </mxCell>
        <mxCell id="5xG1RXUnwL2E0h_gpWQM-92" value="" style="curved=1;startArrow=none;endArrow=block;exitX=1;exitY=0.49;entryX=0;entryY=0.49;rounded=0;fontStyle=1" edge="1" parent="1" source="5xG1RXUnwL2E0h_gpWQM-83" target="5xG1RXUnwL2E0h_gpWQM-85">
          <mxGeometry relative="1" as="geometry">
            <Array as="points" />
          </mxGeometry>
        </mxCell>
        <mxCell id="5xG1RXUnwL2E0h_gpWQM-93" value="" style="curved=1;startArrow=none;endArrow=block;exitX=1;exitY=0.5;entryX=0.21;entryY=0;rounded=0;fontStyle=1" edge="1" parent="1" source="5xG1RXUnwL2E0h_gpWQM-84" target="5xG1RXUnwL2E0h_gpWQM-86">
          <mxGeometry relative="1" as="geometry">
            <Array as="points">
              <mxPoint x="680" y="851" />
            </Array>
          </mxGeometry>
        </mxCell>
        <mxCell id="5xG1RXUnwL2E0h_gpWQM-94" value="" style="curved=1;startArrow=none;endArrow=block;exitX=1;exitY=0.49;entryX=0.21;entryY=0.99;rounded=0;fontStyle=1" edge="1" parent="1" source="5xG1RXUnwL2E0h_gpWQM-85" target="5xG1RXUnwL2E0h_gpWQM-86">
          <mxGeometry relative="1" as="geometry">
            <Array as="points">
              <mxPoint x="680" y="935" />
            </Array>
          </mxGeometry>
        </mxCell>
        <mxCell id="5xG1RXUnwL2E0h_gpWQM-95" value="" style="curved=1;startArrow=none;endArrow=block;exitX=1;exitY=0.49;entryX=0;entryY=0.49;rounded=0;fontStyle=1" edge="1" parent="1" source="5xG1RXUnwL2E0h_gpWQM-86" target="5xG1RXUnwL2E0h_gpWQM-87">
          <mxGeometry relative="1" as="geometry">
            <Array as="points" />
          </mxGeometry>
        </mxCell>
        <mxCell id="5xG1RXUnwL2E0h_gpWQM-96" value="账单数据分析模块" style="text;html=1;align=center;verticalAlign=middle;resizable=0;points=[];autosize=1;strokeColor=none;fillColor=none;fontStyle=1" vertex="1" parent="1">
          <mxGeometry x="389" y="766" width="114" height="26" as="geometry" />
        </mxCell>
      </root>
    </mxGraphModel>
  </diagram>
</mxfile>
